<svg width="300" height="300" viewBox="0 0 300 300" fill="none" xmlns="http://www.w3.org/2000/svg">
<path d="M135 206.25L122.5 195L105 197.5C93.75 198.75 82.5 191.25 80 180L77.5 163.75H76.25L37.5 241.25L82.5 235L105 275L137.5 208.75L135 206.25Z" fill="#C7AD75"/>
<path d="M223.75 163.75L220 180C217.5 190 208.75 197.5 198.75 197.5H196.25L178.75 195L166.25 206.25L163.75 208.75L196.25 275L218.75 236.25L263.75 242.5L223.75 163.75Z" fill="#C7AD75"/>
<path d="M232.5 80L211.25 70L207.5 47.5C206.25 42.5 201.25 38.75 196.25 40L172.5 43.75L155 27.5C151.25 23.75 145 23.75 141.25 27.5L123.75 43.75L103.75 40C97.5 38.75 93.75 42.5 92.5 47.5L88.75 70L67.5 80C62.5 82.5 61.25 87.5 63.75 92.5L73.75 112.5L63.75 132.5C61.25 137.5 63.75 142.5 67.5 145L88.75 155L92.5 177.5C93.75 182.5 98.75 186.25 103.75 185L127.5 181.25L145 197.5C148.75 201.25 155 201.25 158.75 197.5L176.25 181.25L200 185C205 186.25 210 182.5 211.25 177.5L215 155L236.25 145C241.25 142.5 242.5 137.5 240 132.5L226.25 112.5L236.25 92.5C238.75 87.5 237.5 82.5 232.5 80Z" fill="#C7AD75"/>
</svg>
