<svg width="60" height="60" viewBox="0 0 60 60" fill="none" xmlns="http://www.w3.org/2000/svg">
<path d="M41 7H4C2.8 7 2 7.8 2 9V20V59C2 59.6 2.4 60 3 60H42C42.6 60 43 59.6 43 59V20V9C43 7.8 42.2 7 41 7ZM4 9H41V19H4V9ZM41 58H4V21H41V58Z" fill="#FFF7E6"/>
<path d="M21 13H9V15H21V13Z" fill="#FFF7E6"/>
<path d="M29 13H24V15H29V13Z" fill="#FFF7E6"/>
<path d="M13 24H8V26H13V24Z" fill="#FFF7E6"/>
<path d="M21 24H16V26H21V24Z" fill="#FFF7E6"/>
<path d="M29 24H24V26H29V24Z" fill="#FFF7E6"/>
<path d="M37 24H32V26H37V24Z" fill="#FFF7E6"/>
<path d="M8 36H15C15.6 36 16 35.6 16 35V30C16 29.4 15.6 29 15 29H8C7.4 29 7 29.4 7 30V35C7 35.6 7.4 36 8 36ZM9 31H14V34H9V31Z" fill="#FFF7E6"/>
<path d="M26 29H19C18.4 29 18 29.4 18 30V35C18 35.6 18.4 36 19 36H26C26.6 36 27 35.6 27 35V30C27 29.4 26.6 29 26 29ZM25 34H20V31H25V34Z" fill="#FFF7E6"/>
<path d="M29 35C29 35.6 29.4 36 30 36H37C37.6 36 38 35.6 38 35V30C38 29.4 37.6 29 37 29H30C29.4 29 29 29.4 29 30V35ZM31 31H36V34H31V31Z" fill="#FFF7E6"/>
<path d="M8 46H15C15.6 46 16 45.6 16 45V40C16 39.4 15.6 39 15 39H8C7.4 39 7 39.4 7 40V45C7 45.6 7.4 46 8 46ZM9 41H14V44H9V41Z" fill="#FFF7E6"/>
<path d="M26 39H19C18.4 39 18 39.4 18 40V45C18 45.6 18.4 46 19 46H26C26.6 46 27 45.6 27 45V40C27 39.4 26.6 39 26 39ZM25 44H20V41H25V44Z" fill="#FFF7E6"/>
<path d="M37 39H30C29.4 39 29 39.4 29 40V45C29 45.6 29.4 46 30 46H37C37.6 46 38 45.6 38 45V40C38 39.4 37.6 39 37 39ZM36 44H31V41H36V44Z" fill="#FFF7E6"/>
<path d="M8 56H15C15.6 56 16 55.6 16 55V50C16 49.4 15.6 49 15 49H8C7.4 49 7 49.4 7 50V55C7 55.6 7.4 56 8 56ZM9 51H14V54H9V51Z" fill="#FFF7E6"/>
<path d="M26 49H19C18.4 49 18 49.4 18 50V55C18 55.6 18.4 56 19 56H26C26.6 56 27 55.6 27 55V50C27 49.4 26.6 49 26 49ZM25 54H20V51H25V54Z" fill="#FFF7E6"/>
<path d="M37 49H30C29.4 49 29 49.4 29 50V55C29 55.6 29.4 56 30 56H37C37.6 56 38 55.6 38 55V50C38 49.4 37.6 49 37 49ZM36 54H31V51H36V54Z" fill="#FFF7E6"/>
<path d="M56 24V53H54V48V10C54 9.8 53.9 9.5 53.8 9.4L50.9 0.7C50.8 0.3 50.4 0 50 0C49.6 0 49.2 0.3 49.1 0.7L46.2 9.4C46.1 9.6 46 9.8 46 10V48V59C46 59.6 46.4 60 47 60H53C53.6 60 54 59.6 54 59V55H57C57.6 55 58 54.6 58 54V24H56ZM48 11H52V47H48V11ZM50 4.2L51.6 9H48.4L50 4.2ZM52 58H48V49H52V58Z" fill="#FFF7E6"/>
</svg>
