<svg width="76" height="80" viewBox="0 0 76 80" fill="none" xmlns="http://www.w3.org/2000/svg">
<path fill-rule="evenodd" clip-rule="evenodd" d="M20.4031 18.9639C20.7358 19.3968 21.255 19.6837 21.8104 19.6939L22.2301 19.6963C22.6559 19.8784 23.1255 19.9795 23.6187 19.9795H23.7351C18.1966 24.1098 14.6057 30.6961 14.6057 38.1012C14.6057 48.2323 21.326 56.8305 30.5617 59.7068C29.9916 60.3577 29.3894 61.1719 28.9877 62.0633C18.9619 58.6332 11.7393 49.1525 11.7393 38.0235C11.7393 30.4393 15.094 23.6207 20.4031 18.9639ZM32.126 55.1735C24.7069 52.9707 19.2853 46.1158 19.2853 38.0239C19.2853 28.1553 27.3498 20.127 37.2619 20.127C47.1727 20.127 55.2365 28.1553 55.2365 38.0239C55.2365 43.9342 52.3444 49.1846 47.8946 52.4428C47.5455 51.7665 46.2454 50.9939 44.8982 50.787C49.2785 48.1705 52.2148 43.3956 52.2148 37.9511C52.2148 29.7018 45.4729 22.9891 37.1862 22.9891C28.8974 22.9891 22.1553 29.7018 22.1553 37.9511C22.1553 44.4358 26.3209 49.9705 32.126 52.0388V55.1735ZM55.145 19.9146C59.8568 24.5256 62.7823 30.9407 62.7823 38.0235C62.7823 44.3353 60.4595 50.1168 56.6191 54.5649C55.4595 53.97 54.3698 53.8197 53.6883 53.7954C57.6364 49.7258 60.064 44.1904 60.064 38.1012C60.064 30.6961 56.4733 24.1098 50.9353 19.9795H54.4772C54.7064 19.9795 54.9304 19.9576 55.145 19.9146ZM32.126 47.5618C28.7135 45.7339 26.3896 42.1442 26.3896 38.024C26.3896 32.0558 31.2669 27.2005 37.2615 27.2005C43.2553 27.2005 48.1321 32.0558 48.1321 38.024C48.1321 41.973 45.9975 45.4347 42.8178 47.3228C42.818 46.2984 42.8107 45.1572 42.8009 44.02C44.4089 42.5483 45.417 40.4388 45.417 38.0993C45.417 33.6635 41.7921 30.0539 37.337 30.0539C32.8807 30.0539 29.2559 33.6635 29.2559 38.0993C29.2559 40.56 30.3711 42.7665 32.126 44.2419V47.5618Z" fill="url(#paint0_radial_2177_27)"/>
<path fill-rule="evenodd" clip-rule="evenodd" d="M66.2344 19.8859C69.5985 25.1559 71.5476 31.4047 71.5476 38.0983C71.5476 56.8817 56.2019 72.1622 37.3414 72.1622C18.4784 72.1622 3.13135 56.8817 3.13135 38.0983C3.13135 31.5096 5.02006 25.3518 8.287 20.1376L8.63033 20.155H11.7848C8.13994 25.2713 5.9966 31.5161 5.9966 38.2496C5.9966 55.5371 20.1222 69.6027 37.4881 69.6027C54.8498 69.6027 68.9752 55.5371 68.9752 38.2496C68.9752 31.5161 66.832 25.2713 63.1874 20.155H64.8809C65.36 20.155 65.8171 20.0597 66.2344 19.8859ZM17.3084 10.5059C22.9435 6.43658 29.8664 4.03711 37.3414 4.03711C44.8155 4.03711 51.7375 6.43658 57.3721 10.5059H52.139C47.7627 8.2022 42.7755 6.89764 37.4881 6.89764C32.1993 6.89764 27.2112 8.2022 22.8344 10.5059H17.3084Z" fill="#CCE6FF" fill-opacity="0.38"/>
<path fill-rule="evenodd" clip-rule="evenodd" d="M51.4071 77.2137H37.5984C36.5252 77.2137 32.6179 70.6758 32.2137 69.2046C31.9725 68.8765 31.7771 68.4651 31.6159 67.9654C31.0099 66.0868 31.4084 62.5054 31.4084 62.5054C31.3579 61.1776 32.6715 59.9977 34.4117 59.7379V40.8579C34.4117 39.3977 35.6005 38.2139 37.0673 38.2139H37.7312C39.1978 38.2139 40.3866 39.3977 40.3866 40.8579V52.8454C40.4577 53.1547 40.6619 53.6609 41.2044 53.5579C41.6007 53.0516 42.1819 52.7195 42.8491 52.6612L43.0147 52.6469C44.2104 52.5426 45.2875 53.3525 45.622 54.5223C45.8413 54.649 46.17 54.7425 46.6331 54.6523C47.0143 54.2449 47.5385 53.9779 48.1303 53.9263L48.2959 53.9119C49.4274 53.8133 50.4528 54.5333 50.8378 55.6107C51.0012 55.7211 51.2661 55.8344 51.6316 55.8239C51.9638 55.5714 52.3646 55.4153 52.8025 55.3772L52.968 55.3628C54.339 55.2433 55.5542 56.3256 55.682 57.7804L55.9003 60.2642L55.9216 60.2918C55.9216 60.2918 55.7901 65.7619 54.8594 68.7526C54.3727 70.3165 52.5498 76.4912 51.4071 77.2137Z" fill="url(#paint1_linear_2177_27)"/>
<mask id="mask0_2177_27" style="mask-type:luminance" maskUnits="userSpaceOnUse" x="31" y="38" width="25" height="40">
<path d="M51.4071 77.2137H37.5984C36.5252 77.2137 32.6179 70.6758 32.2137 69.2046C31.9725 68.8765 31.7771 68.4651 31.6159 67.9654C31.0099 66.0868 31.4084 62.5054 31.4084 62.5054C31.3579 61.1776 32.6715 59.9977 34.4117 59.7379V40.8579C34.4117 39.3977 35.6005 38.2139 37.0673 38.2139H37.7312C39.1978 38.2139 40.3866 39.3977 40.3866 40.8579V52.8454C40.4577 53.1547 40.6619 53.6609 41.2044 53.5579C41.6007 53.0516 42.1819 52.7195 42.8491 52.6612L43.0147 52.6469C44.2104 52.5426 45.2875 53.3525 45.622 54.5223C45.8413 54.649 46.17 54.7425 46.6331 54.6523C47.0143 54.2449 47.5385 53.9779 48.1303 53.9263L48.2959 53.9119C49.4274 53.8133 50.4528 54.5333 50.8378 55.6107C51.0012 55.7211 51.2661 55.8344 51.6316 55.8239C51.9638 55.5714 52.3646 55.4153 52.8025 55.3772L52.968 55.3628C54.339 55.2433 55.5542 56.3256 55.682 57.7804L55.9003 60.2642L55.9216 60.2918C55.9216 60.2918 55.7901 65.7619 54.8594 68.7526C54.3727 70.3165 52.5498 76.4912 51.4071 77.2137Z" fill="white"/>
</mask>
<g mask="url(#mask0_2177_27)">
<path fill-rule="evenodd" clip-rule="evenodd" d="M34.2788 59.2344V65.5802C34.2788 65.5802 33.3192 61.7295 33.3493 60.5565" fill="black" fill-opacity="0.144"/>
<path d="M37.4209 45.5491C38.7663 45.5491 39.857 44.0473 39.857 42.1947C39.857 40.3421 38.7663 38.8403 37.4209 38.8403C36.0755 38.8403 34.9849 40.3421 34.9849 42.1947C34.9849 44.0473 36.0755 45.5491 37.4209 45.5491Z" fill="url(#paint2_linear_2177_27)"/>
<path d="M43.3077 56.7223C44.1877 56.7223 44.9011 56.0417 44.9011 55.202C44.9011 54.3623 44.1877 53.6816 43.3077 53.6816C42.4277 53.6816 41.7144 54.3623 41.7144 55.202C41.7144 56.0417 42.4277 56.7223 43.3077 56.7223Z" fill="url(#paint3_linear_2177_27)"/>
<path d="M48.6187 57.78C49.4987 57.78 50.2121 57.0993 50.2121 56.2596C50.2121 55.4199 49.4987 54.7393 48.6187 54.7393C47.7388 54.7393 47.0254 55.4199 47.0254 56.2596C47.0254 57.0993 47.7388 57.78 48.6187 57.78Z" fill="url(#paint4_linear_2177_27)"/>
<path d="M53.775 59.3664C54.655 59.3664 55.3683 58.6857 55.3683 57.846C55.3683 57.0064 54.655 56.3257 53.775 56.3257C52.895 56.3257 52.1816 57.0064 52.1816 57.846C52.1816 58.6857 52.895 59.3664 53.775 59.3664Z" fill="url(#paint5_linear_2177_27)"/>
</g>
<path d="M12.0791 12.4623C12.0791 12.0992 11.7874 11.8086 11.4435 11.8086H7.93185C7.47321 11.8086 7.09814 12.1821 7.09814 12.6386V18.065C7.09814 18.4593 7.43159 18.7913 7.82764 18.7913C8.24432 18.7913 8.57776 18.4593 8.57776 18.065V15.8655H11.3705C11.7144 15.8655 12.0062 15.5749 12.0062 15.2221C12.0062 14.859 11.7144 14.5685 11.3705 14.5685H8.57776V13.1055H11.4435C11.7874 13.1055 12.0791 12.8151 12.0791 12.4623ZM19.2589 14.0393C19.2589 12.7528 18.3731 11.8086 16.9247 11.8086H14.5072C14.0485 11.8086 13.6735 12.1821 13.6735 12.6386V18.065C13.6735 18.4593 14.0069 18.7913 14.403 18.7913C14.8198 18.7913 15.1533 18.4593 15.1533 18.065V16.27H16.2368L17.4248 18.4178C17.5604 18.6564 17.8 18.7913 18.0605 18.7913C18.4981 18.7913 18.79 18.4178 18.79 18.065C18.79 17.9509 18.7588 17.8264 18.6962 17.7123L17.7374 16.0937C18.4877 15.9172 19.2589 15.2637 19.2589 14.0393ZM16.7059 13.1055C17.2998 13.1055 17.7478 13.4583 17.7478 14.0393C17.7478 14.6204 17.2998 14.9732 16.7059 14.9732H15.1533V13.1055H16.7059ZM25.9802 18.065C25.9802 17.7227 25.6883 17.4321 25.3445 17.4321H22.4789V15.8655H25.2715C25.6153 15.8655 25.9072 15.5749 25.9072 15.2221C25.9072 14.859 25.6153 14.5685 25.2715 14.5685H22.4789V13.1055H25.3445C25.6883 13.1055 25.9802 12.8151 25.9802 12.4623C25.9802 12.0992 25.6883 11.8086 25.3445 11.8086H21.8328C21.3742 11.8086 20.9991 12.1821 20.9991 12.6386V17.899C20.9991 18.3555 21.3742 18.729 21.8328 18.729H25.3445C25.6883 18.729 25.9802 18.4385 25.9802 18.065ZM32.6805 18.065C32.6805 17.7227 32.3887 17.4321 32.0448 17.4321H29.1792V15.8655H31.9718C32.3159 15.8655 32.6075 15.5749 32.6075 15.2221C32.6075 14.859 32.3159 14.5685 31.9718 14.5685H29.1792V13.1055H32.0448C32.3887 13.1055 32.6805 12.8151 32.6805 12.4623C32.6805 12.0992 32.3887 11.8086 32.0448 11.8086H28.5331C28.0747 11.8086 27.6994 12.1821 27.6994 12.6386V17.899C27.6994 18.3555 28.0747 18.729 28.5331 18.729H32.0448C32.3887 18.729 32.6805 18.4385 32.6805 18.065ZM42.8718 12.4623C42.8718 12.0992 42.5799 11.8086 42.2361 11.8086H37.8491C37.4948 11.8086 37.203 12.0992 37.203 12.4416C37.203 12.8151 37.4948 13.1055 37.8491 13.1055H39.2975V18.0546C39.2975 18.4593 39.6311 18.7913 40.0374 18.7913C40.4542 18.7913 40.7877 18.4593 40.7877 18.0546V13.1055H42.2361C42.5799 13.1055 42.8718 12.8151 42.8718 12.4623ZM49.9681 14.0393C49.9681 12.7528 49.0824 11.8086 47.634 11.8086H45.2165C44.7578 11.8086 44.3828 12.1821 44.3828 12.6386V18.065C44.3828 18.4593 44.7162 18.7913 45.1123 18.7913C45.5289 18.7913 45.8626 18.4593 45.8626 18.065V16.27H46.9461L48.1341 18.4178C48.2697 18.6564 48.5093 18.7913 48.7698 18.7913C49.2074 18.7913 49.4993 18.4178 49.4993 18.065C49.4993 17.9509 49.4681 17.8264 49.4055 17.7123L48.4467 16.0937C49.197 15.9172 49.9681 15.2637 49.9681 14.0393ZM47.4152 13.1055C48.0091 13.1055 48.4571 13.4583 48.4571 14.0393C48.4571 14.6204 48.0091 14.9732 47.4152 14.9732H45.8626V13.1055H47.4152ZM53.1882 18.065V12.4727C53.1882 12.0785 52.8546 11.7464 52.4587 11.7464C52.0418 11.7464 51.7084 12.0785 51.7084 12.4727V18.065C51.7084 18.4593 52.0418 18.7913 52.4379 18.7913C52.8546 18.7913 53.1882 18.4593 53.1882 18.065ZM61.3369 18.0028C61.3369 17.9093 61.3161 17.816 61.2849 17.7227L59.2632 12.5246C59.0652 12.0162 58.5337 11.705 58.0025 11.7464C57.5126 11.7464 57.0437 12.0576 56.8665 12.5246L54.8346 17.7227C54.7928 17.816 54.7824 17.9093 54.7824 18.0028C54.7824 18.3971 55.0951 18.7913 55.5639 18.7913C55.887 18.7913 56.1788 18.6046 56.2934 18.3037L56.5749 17.5567H59.5551L59.8259 18.3037C59.9405 18.6046 60.2324 18.7913 60.545 18.7913C61.0243 18.7913 61.3369 18.3867 61.3369 18.0028ZM59.1486 16.2597H56.9811L58.0649 13.282L59.1486 16.2597ZM67.4226 18.065C67.4226 17.7227 67.1307 17.4321 66.7869 17.4321H64.4214V12.4727C64.4214 12.0785 64.0879 11.7464 63.692 11.7464C63.2752 11.7464 62.9417 12.0785 62.9417 12.4727V17.899C62.9417 18.3555 63.3168 18.729 63.7753 18.729H66.7869C67.1307 18.729 67.4226 18.4385 67.4226 18.065Z" fill="white"/>
<defs>
<radialGradient id="paint0_radial_2177_27" cx="0" cy="0" r="1" gradientUnits="userSpaceOnUse" gradientTransform="translate(37.2245 37.7312) scale(19.3112 19.2132)">
<stop stop-color="#1D98FF"/>
<stop offset="1" stop-color="#CCE6FF"/>
</radialGradient>
<linearGradient id="paint1_linear_2177_27" x1="39.5735" y1="16.3183" x2="39.5735" y2="79.6439" gradientUnits="userSpaceOnUse">
<stop stop-color="#7AD5FE"/>
<stop offset="0.51" stop-color="#3C99FC"/>
<stop offset="1" stop-color="#2684FB"/>
</linearGradient>
<linearGradient id="paint2_linear_2177_27" x1="37.7257" y1="35.3309" x2="37.7257" y2="45.1505" gradientUnits="userSpaceOnUse">
<stop stop-color="white" stop-opacity="0.251"/>
<stop offset="1" stop-color="#2684FB" stop-opacity="0"/>
</linearGradient>
<linearGradient id="paint3_linear_2177_27" x1="43.5041" y1="52.0915" x2="43.5041" y2="56.5422" gradientUnits="userSpaceOnUse">
<stop stop-color="white" stop-opacity="0.251"/>
<stop offset="1" stop-color="#2684FB" stop-opacity="0"/>
</linearGradient>
<linearGradient id="paint4_linear_2177_27" x1="48.8152" y1="53.1493" x2="48.8152" y2="57.6" gradientUnits="userSpaceOnUse">
<stop stop-color="white" stop-opacity="0.251"/>
<stop offset="1" stop-color="#2684FB" stop-opacity="0"/>
</linearGradient>
<linearGradient id="paint5_linear_2177_27" x1="53.9713" y1="54.7355" x2="53.9713" y2="59.1862" gradientUnits="userSpaceOnUse">
<stop stop-color="white" stop-opacity="0.251"/>
<stop offset="1" stop-color="#2684FB" stop-opacity="0"/>
</linearGradient>
</defs>
</svg>
