<svg width="60" height="60" viewBox="0 0 60 60" fill="none" xmlns="http://www.w3.org/2000/svg">
<g clip-path="url(#clip0_178_798)">
<path d="M59.9599 23.1953C59.8502 22.8577 59.5355 22.6291 59.1806 22.6291H37.484L30.7794 1.99435C30.6697 1.65676 30.3551 1.4281 30.0001 1.4281C29.6452 1.4281 29.3305 1.65665 29.2208 1.99435L22.5161 22.6291H0.819437C0.464482 22.6291 0.149841 22.8577 0.0401539 23.1953C-0.0695335 23.5328 0.0506419 23.9027 0.337861 24.1113L9.7263 30.9325C9.02229 32.2733 8.62319 33.7983 8.62319 35.415C8.62319 35.8071 8.64723 36.1936 8.69279 36.5735C8.66591 36.7388 8.68973 36.9103 8.76435 37.0637C8.94625 38.1189 9.29913 39.1162 9.79403 40.0256C9.82703 40.1714 9.89946 40.3101 10.013 40.4236C10.0204 40.431 10.0284 40.4374 10.0359 40.4444C10.5284 41.2505 11.1356 41.9791 11.8345 42.6079C11.8637 42.6512 11.8972 42.6926 11.9356 42.731C12.0035 42.799 12.0809 42.8516 12.1629 42.8907C12.933 43.524 13.8023 44.0409 14.7436 44.4141C14.8372 44.4725 14.9398 44.5102 15.0454 44.5274C15.1513 44.5654 15.2581 44.6016 15.3658 44.6359L11.1862 57.4992C11.0765 57.8368 11.1967 58.2066 11.4839 58.4153C11.7711 58.624 12.16 58.624 12.4471 58.4153L30.0001 45.6623L47.5531 58.4153C47.6966 58.5196 47.8656 58.5719 48.0346 58.5719C48.2036 58.5719 48.3727 58.5196 48.5162 58.4153C48.8034 58.2066 48.9236 57.8368 48.8139 57.4992L44.6344 44.636C48.489 43.4069 51.302 39.8234 51.3749 35.5837C51.4166 35.4351 51.416 35.2772 51.3724 35.129C51.3414 34.0679 51.1391 33.0488 50.7916 32.0992C50.7809 32.0627 50.7669 32.0271 50.751 31.9921C50.6128 31.628 50.4533 31.2743 50.2739 30.9327L59.6624 24.1115C59.9495 23.9027 60.0695 23.533 59.9599 23.1953ZM20.2924 30.1441C20.4525 30.3041 20.6622 30.3842 20.8719 30.3842C21.0816 30.3842 21.2913 30.3042 21.4514 30.1442L22.8209 28.7747C23.1963 29.0311 23.5479 29.3193 23.874 29.6339L12.518 40.9899C12.2033 40.6637 11.9151 40.3122 11.6587 39.9368L19.3005 32.2951C19.6205 31.9751 19.6205 31.4562 19.3005 31.1363C18.9804 30.8164 18.4616 30.8164 18.1416 31.1363L10.8502 38.4278C10.659 37.9569 10.5109 37.4642 10.4115 36.954L19.8381 27.5275C20.3483 27.6268 20.8409 27.7749 21.3119 27.966L20.2924 28.9854C19.9725 29.3053 19.9725 29.8241 20.2924 30.1441ZM16.7538 43.3015L26.1856 33.8697C26.263 34.265 26.3109 34.6704 26.3279 35.0839L17.9681 43.4436C17.5545 43.4269 17.1491 43.3788 16.7538 43.3015ZM25.993 37.7364C25.2168 40.3042 23.1882 42.3328 20.6204 43.109L25.993 37.7364ZM14.9977 42.7399C14.5684 42.5456 14.1584 42.3161 13.7729 42.0524L24.9364 30.889C25.2 31.2744 25.4296 31.6843 25.6239 32.1138L14.9977 42.7399ZM10.2911 34.7567C10.6097 30.8496 13.7335 27.7259 17.6406 27.4072L10.2911 34.7567ZM46.4762 55.6072L30.4817 43.9865C30.1945 43.7779 29.8057 43.7779 29.5185 43.9865L13.524 55.6072L16.9706 44.9994C17.4051 45.0592 17.8484 45.0909 18.2991 45.0909C22.2982 45.0909 25.7384 42.6522 27.2106 39.1838C27.6374 39.1553 27.9748 38.8011 27.9748 38.3672V35.6519C28.0419 35.4748 28.0453 35.2797 27.9853 35.1006C28.0892 34.0808 28.9532 33.2822 30 33.2822C31.1167 33.2822 32.0251 34.1907 32.0251 35.3074V38.3672C32.0251 38.8011 32.3625 39.1553 32.7893 39.1838C32.9374 39.5329 33.1058 39.8715 33.2925 40.1982C33.3115 40.2379 33.3338 40.2763 33.3596 40.3132C33.8957 41.2226 34.5756 42.0376 35.3688 42.7255C35.3705 42.7273 35.3721 42.7292 35.3738 42.731C35.4068 42.764 35.4423 42.7926 35.479 42.8188C36.3046 43.5138 37.2476 44.0732 38.2735 44.4632C38.3108 44.4803 38.3487 44.4952 38.3877 44.5064C39.4116 44.8807 40.5159 45.0865 41.667 45.0905C41.67 45.0905 41.673 45.0909 41.676 45.0909C41.6778 45.0909 41.6795 45.0907 41.6813 45.0907C41.6878 45.0907 41.6944 45.0909 41.7009 45.0909C42.1516 45.0909 42.5948 45.0592 43.0292 44.9994L46.4762 55.6072ZM44.74 27.9764L43.731 28.9854C43.411 29.3054 43.411 29.8243 43.7311 30.1442C43.8911 30.3042 44.1008 30.3842 44.3105 30.3842C44.5202 30.3842 44.7299 30.3042 44.89 30.1441L46.2442 28.7899C46.6186 29.0474 46.9697 29.3362 47.2947 29.6517L35.9378 41.0085C35.6222 40.6835 35.3334 40.3325 35.0759 39.9581L42.7389 32.2951C43.0589 31.9751 43.0589 31.4562 42.7389 31.1363C42.4188 30.8164 41.9001 30.8164 41.5801 31.1363L34.2625 38.4539C34.07 37.9846 33.9202 37.4935 33.8191 36.985L43.2711 27.5329C43.7795 27.6341 44.2706 27.7839 44.74 27.9764ZM41.3458 43.4432C40.9514 43.4259 40.5646 43.3795 40.1868 43.3071L49.5932 33.9008C49.6655 34.2786 49.7119 34.6654 49.7292 35.0597L41.3458 43.4432ZM37.1963 42.0676L48.3535 30.9104C48.6162 31.2971 48.8443 31.7085 49.0373 32.1391L38.425 42.7514C37.9944 42.5583 37.583 42.3301 37.1963 42.0676ZM33.6902 34.7961C33.9919 30.8573 37.1435 27.7059 41.0822 27.4041L33.6902 34.7961ZM43.9876 43.1189L49.405 37.7016C48.6331 40.2974 46.5835 42.3471 43.9876 43.1189ZM49.3903 29.5489C49.3022 29.4337 49.2117 29.3205 49.1185 29.2094C49.0894 29.1662 49.0562 29.1252 49.0181 29.087C49.0132 29.0821 49.0078 29.078 49.0028 29.0733C48.3198 28.288 47.5122 27.6139 46.6116 27.0812C46.5662 27.0481 46.5182 27.0203 46.4683 26.9978C45.4495 26.4186 44.316 26.0191 43.1109 25.8423C43.0973 25.8403 43.0835 25.8378 43.0697 25.8365C42.6225 25.7729 42.1657 25.7393 41.7012 25.7393C37.3505 25.7393 33.6616 28.6258 32.4481 32.5841C31.7987 31.9999 30.9403 31.6436 30.0001 31.6436C29.0599 31.6436 28.2014 31.9999 27.552 32.5842C26.3386 28.6259 22.6497 25.7393 18.2991 25.7393C15.1676 25.7393 12.3794 27.2349 10.6098 29.5489L3.34126 24.268H23.1114C23.4664 24.268 23.781 24.0393 23.8907 23.7017L30.0001 4.89921L36.1094 23.7017C36.2191 24.0393 36.5337 24.268 36.8887 24.268H56.659L49.3903 29.5489Z" fill="#FFF7E6"/>
</g>
<defs>
<clipPath id="clip0_178_798">
<rect width="60" height="60" fill="white"/>
</clipPath>
</defs>
</svg>
