<svg width="30" height="35" viewBox="0 0 30 35" fill="none" xmlns="http://www.w3.org/2000/svg">
<circle cx="17.5" cy="12.5" r="12.5" fill="#1C7B6D"/>
<path d="M16.0179 12.875H0.821429C0.328571 12.875 0 13.2036 0 13.6964V18.2143V34.2321C0 34.4786 0.164286 34.6429 0.410714 34.6429H16.4286C16.675 34.6429 16.8393 34.4786 16.8393 34.2321V18.2143V13.6964C16.8393 13.2036 16.5107 12.875 16.0179 12.875ZM0.821429 13.6964H16.0179V17.8036H0.821429V13.6964ZM16.0179 33.8214H0.821429V18.625H16.0179V33.8214Z" fill="#FFF7E6"/>
<path d="M7.80357 15.3393H2.875V16.1607H7.80357V15.3393Z" fill="#FFF7E6"/>
<path d="M11.0893 15.3393H9.03571V16.1607H11.0893V15.3393Z" fill="#FFF7E6"/>
<path d="M4.51787 19.8572H2.46429V20.6786H4.51787V19.8572Z" fill="#FFF7E6"/>
<path d="M7.80357 19.8572H5.75V20.6786H7.80357V19.8572Z" fill="#FFF7E6"/>
<path d="M11.0893 19.8572H9.03571V20.6786H11.0893V19.8572Z" fill="#FFF7E6"/>
<path d="M14.375 19.8572H12.3214V20.6786H14.375V19.8572Z" fill="#FFF7E6"/>
<path d="M2.4643 24.7858H5.3393C5.58573 24.7858 5.75002 24.6215 5.75002 24.3751V22.3215C5.75002 22.0751 5.58573 21.9108 5.3393 21.9108H2.4643C2.21787 21.9108 2.05359 22.0751 2.05359 22.3215V24.3751C2.05359 24.6215 2.21787 24.7858 2.4643 24.7858ZM2.87502 22.7322H4.92859V23.9643H2.87502V22.7322Z" fill="#FFF7E6"/>
<path d="M9.85713 21.9108H6.98213C6.7357 21.9108 6.57141 22.0751 6.57141 22.3215V24.3751C6.57141 24.6215 6.7357 24.7858 6.98213 24.7858H9.85713C10.1036 24.7858 10.2678 24.6215 10.2678 24.3751V22.3215C10.2678 22.0751 10.1036 21.9108 9.85713 21.9108ZM9.44641 23.9643H7.39284V22.7322H9.44641V23.9643Z" fill="#FFF7E6"/>
<path d="M11.0893 24.3751C11.0893 24.6215 11.2536 24.7858 11.5 24.7858H14.375C14.6214 24.7858 14.7857 24.6215 14.7857 24.3751V22.3215C14.7857 22.0751 14.6214 21.9108 14.375 21.9108H11.5C11.2536 21.9108 11.0893 22.0751 11.0893 22.3215V24.3751ZM11.9107 22.7322H13.9643V23.9643H11.9107V22.7322Z" fill="#FFF7E6"/>
<path d="M2.4643 28.8929H5.3393C5.58573 28.8929 5.75002 28.7286 5.75002 28.4822V26.4286C5.75002 26.1822 5.58573 26.0179 5.3393 26.0179H2.4643C2.21787 26.0179 2.05359 26.1822 2.05359 26.4286V28.4822C2.05359 28.7286 2.21787 28.8929 2.4643 28.8929ZM2.87502 26.8393H4.92859V28.0715H2.87502V26.8393Z" fill="#FFF7E6"/>
<path d="M9.85713 26.0179H6.98213C6.7357 26.0179 6.57141 26.1822 6.57141 26.4286V28.4822C6.57141 28.7286 6.7357 28.8929 6.98213 28.8929H9.85713C10.1036 28.8929 10.2678 28.7286 10.2678 28.4822V26.4286C10.2678 26.1822 10.1036 26.0179 9.85713 26.0179ZM9.44641 28.0715H7.39284V26.8393H9.44641V28.0715Z" fill="#FFF7E6"/>
<path d="M14.375 26.0179H11.5C11.2536 26.0179 11.0893 26.1822 11.0893 26.4286V28.4822C11.0893 28.7286 11.2536 28.8929 11.5 28.8929H14.375C14.6214 28.8929 14.7857 28.7286 14.7857 28.4822V26.4286C14.7857 26.1822 14.6214 26.0179 14.375 26.0179ZM13.9643 28.0715H11.9107V26.8393H13.9643V28.0715Z" fill="#FFF7E6"/>
<path d="M2.4643 33H5.3393C5.58573 33 5.75002 32.8357 5.75002 32.5893V30.5357C5.75002 30.2893 5.58573 30.125 5.3393 30.125H2.4643C2.21787 30.125 2.05359 30.2893 2.05359 30.5357V32.5893C2.05359 32.8357 2.21787 33 2.4643 33ZM2.87502 30.9464H4.92859V32.1786H2.87502V30.9464Z" fill="#FFF7E6"/>
<path d="M9.85713 30.125H6.98213C6.7357 30.125 6.57141 30.2893 6.57141 30.5357V32.5893C6.57141 32.8357 6.7357 33 6.98213 33H9.85713C10.1036 33 10.2678 32.8357 10.2678 32.5893V30.5357C10.2678 30.2893 10.1036 30.125 9.85713 30.125ZM9.44641 32.1786H7.39284V30.9464H9.44641V32.1786Z" fill="#FFF7E6"/>
<path d="M14.375 30.125H11.5C11.2536 30.125 11.0893 30.2893 11.0893 30.5357V32.5893C11.0893 32.8357 11.2536 33 11.5 33H14.375C14.6214 33 14.7857 32.8357 14.7857 32.5893V30.5357C14.7857 30.2893 14.6214 30.125 14.375 30.125ZM13.9643 32.1786H11.9107V30.9464H13.9643V32.1786Z" fill="#FFF7E6"/>
<path d="M22.1786 19.8571V31.7679H21.3571V29.7143V14.1071C21.3571 14.025 21.3161 13.9018 21.275 13.8607L20.0839 10.2875C20.0428 10.1232 19.8786 10 19.7143 10C19.55 10 19.3857 10.1232 19.3446 10.2875L18.1536 13.8607C18.1125 13.9429 18.0714 14.025 18.0714 14.1071V29.7143V34.2321C18.0714 34.4786 18.2357 34.6429 18.4821 34.6429H20.9464C21.1928 34.6429 21.3571 34.4786 21.3571 34.2321V32.5893H22.5893C22.8357 32.5893 23 32.425 23 32.1786V19.8571H22.1786ZM18.8928 14.5179H20.5357V29.3036H18.8928V14.5179ZM19.7143 11.725L20.3714 13.6964H19.0571L19.7143 11.725ZM20.5357 33.8214H18.8928V30.125H20.5357V33.8214Z" fill="#FFF7E6"/>
</svg>
