<svg width="60" height="60" viewBox="0 0 60 60" fill="none" xmlns="http://www.w3.org/2000/svg">
<path d="M43.5667 20.6677L47.1374 17.097L44.5932 14.1362H38.4637L35.9196 17.097L39.4903 20.6677C36.0266 21.0519 32.7335 22.4094 30.0002 24.5943C27.267 22.4094 23.9739 21.0519 20.5102 20.6677L24.0809 17.097L21.5367 14.1362H15.4072L12.8631 17.097L16.4338 20.6677C7.20363 21.6854 0 29.5299 0 39.0263C0 49.2115 8.28633 57.4979 18.4717 57.4979C22.671 57.4979 26.7349 56.0683 30 53.4583C33.2651 56.0683 37.3291 57.4979 41.5283 57.4979C51.7137 57.4979 60 49.2115 60 39.0263C60 29.5299 52.7964 21.6854 43.5667 20.6677ZM38.3481 17.0051L39.2821 15.9182H43.7747L44.7086 17.0051L41.5283 20.1853L38.3481 17.0051ZM15.2913 17.0051L16.2253 15.9182H20.7179L21.6518 17.0051L18.4716 20.1853L15.2913 17.0051ZM18.4717 55.7158C9.26906 55.7158 1.78219 48.2289 1.78219 39.0263C1.78219 29.8237 9.26906 22.3368 18.4717 22.3368C22.4955 22.3368 26.3822 23.789 29.4155 26.4259C30.3571 27.2444 31.2094 28.1718 31.9488 29.1824C34.0504 32.0544 35.1612 35.4584 35.1612 39.0264C35.1612 42.2576 34.25 45.3545 32.5171 48.0435C32.4946 48.021 32.473 47.9978 32.4507 47.9752C32.353 47.8759 32.2563 47.7757 32.1619 47.6735C32.12 47.6283 32.0793 47.582 32.0382 47.5362C31.9608 47.4499 31.8841 47.3629 31.8091 47.2745C31.766 47.2238 31.7235 47.1727 31.6812 47.1212C31.6088 47.0332 31.5376 46.9439 31.4675 46.854C31.428 46.8034 31.3884 46.7529 31.3498 46.7017C31.273 46.6001 31.1982 46.4969 31.1246 46.3928C31.1018 46.3606 31.0782 46.3289 31.0556 46.2963C32.3314 44.0921 33.0032 41.5909 33.0032 39.0264C33.0032 36.4571 32.3283 33.9521 31.0479 31.7447L31.055 31.7335L30.7527 31.2563C30.1688 30.3353 29.4851 29.4847 28.7128 28.7178C28.4554 28.4621 28.188 28.2156 27.9114 27.979L27.1808 27.3542L27.162 27.3799C24.6613 25.5133 21.6108 24.4948 18.4718 24.4948C10.4591 24.4948 3.94031 31.0137 3.94031 39.0263C3.94031 47.0388 10.4591 53.5576 18.4718 53.5576C21.6186 53.5576 24.6765 52.5342 27.1806 50.6588C27.1917 50.6726 27.2036 50.6858 27.2147 50.6996C27.2779 50.777 27.3427 50.8532 27.407 50.9297C27.4566 50.9884 27.5055 51.0477 27.5557 51.1058C27.6244 51.1852 27.6946 51.2631 27.7645 51.3414C27.8125 51.3949 27.8597 51.4492 27.9082 51.5022C27.9851 51.5861 28.0636 51.6683 28.142 51.7508C28.1854 51.7964 28.228 51.8431 28.2718 51.8882C28.3673 51.9867 28.4647 52.0834 28.5625 52.1797C28.5892 52.2061 28.6151 52.2332 28.6418 52.2594C25.7351 54.4948 22.161 55.7158 18.4717 55.7158ZM33.8762 28.8328C36.0755 27.1811 38.7616 26.277 41.5283 26.277C48.5583 26.277 54.2776 31.9963 54.2776 39.0263C54.2776 46.0562 48.5583 51.7753 41.5283 51.7753C38.7618 51.7753 36.0755 50.8712 33.8762 49.2195C35.885 46.1938 36.9432 42.688 36.9432 39.026C36.9432 35.3643 35.8852 31.8584 33.8762 28.8328ZM30 44.4714C29.1991 42.7776 28.7791 40.9224 28.7791 39.0263C28.7791 37.1302 29.1991 35.2749 30 33.5812C30.8009 35.275 31.2209 37.1302 31.2209 39.0263C31.2209 40.9224 30.8009 42.7776 30 44.4714ZM26.1238 28.8328C24.115 31.8585 23.0568 35.3643 23.0568 39.0263C23.0568 42.6881 24.1148 46.194 26.1238 49.2197C23.9245 50.8715 21.2382 51.7756 18.4717 51.7756C11.4417 51.7756 5.72238 46.0563 5.72238 39.0264C5.72238 31.9964 11.4417 26.277 18.4717 26.277C21.2384 26.277 23.9245 27.1811 26.1238 28.8328ZM41.5283 55.7158C37.5045 55.7158 33.6178 54.2636 30.5845 51.6266C29.643 50.8083 28.7906 49.8808 28.0512 48.8701C25.9496 45.9981 24.8388 42.5942 24.8388 39.0263C24.8388 35.7951 25.75 32.698 27.4828 30.0092C27.5055 30.0319 27.5273 30.0553 27.5498 30.0782C27.6475 30.1772 27.7439 30.2772 27.8381 30.3792C27.8797 30.4242 27.9203 30.4704 27.9612 30.516C28.039 30.6026 28.1159 30.69 28.1913 30.7788C28.234 30.8291 28.2762 30.8799 28.3181 30.9307C28.391 31.0193 28.4626 31.1091 28.5332 31.1996C28.5723 31.2497 28.6116 31.2997 28.65 31.3506C28.7268 31.4522 28.8014 31.5555 28.8751 31.6594C28.8981 31.6919 28.9218 31.7236 28.9444 31.7563C27.6686 33.9606 26.9968 36.4617 26.9968 39.0264C26.9968 41.5957 27.6717 44.1006 28.9521 46.3079L28.9448 46.3192L29.2473 46.7964C30.0258 48.0243 30.9817 49.127 32.0885 50.0737L32.8191 50.6985L32.8379 50.6726C35.3387 52.5393 38.389 53.5578 41.5281 53.5578C49.5408 53.5578 56.0596 47.0391 56.0596 39.0264C56.0596 31.0137 49.5409 24.495 41.5281 24.495C38.3812 24.495 35.3234 25.5184 32.8193 27.394C32.8082 27.3802 32.7963 27.3669 32.7852 27.3532C32.7221 27.2759 32.6576 27.1998 32.5932 27.1235C32.5436 27.0646 32.4943 27.0051 32.4439 26.9468C32.376 26.8683 32.3065 26.7911 32.2372 26.7137C32.1885 26.6594 32.1405 26.6042 32.0912 26.5504C32.016 26.4682 31.9391 26.3878 31.8626 26.3072C31.8175 26.2596 31.7732 26.2113 31.7275 26.1641C31.6359 26.0698 31.5427 25.9773 31.4494 25.885C31.4187 25.8546 31.3889 25.8235 31.358 25.7932C34.2647 23.5579 37.8387 22.337 41.5282 22.337C50.7308 22.337 58.2177 29.8239 58.2177 39.0265C58.2178 48.229 50.7309 55.7158 41.5283 55.7158Z" fill="#FFF7E6"/>
<path d="M22.301 4.11932L20.6836 4.86743L23.0126 9.9028L24.6301 9.15469L22.301 4.11932Z" fill="#FFF7E6"/>
<path d="M37.6977 4.11893L35.3687 9.1543L36.9861 9.90241L39.3151 4.86704L37.6977 4.11893Z" fill="#FFF7E6"/>
<path d="M30.8911 2.50208H29.1089V8.0502H30.8911V2.50208Z" fill="#FFF7E6"/>
</svg>
