<svg width="36" height="35" viewBox="0 0 36 35" fill="none" xmlns="http://www.w3.org/2000/svg">
<circle cx="23.5" cy="12.5" r="12.5" fill="#0A4B6F"/>
<path d="M32.9779 15.8085C32.9176 15.6254 32.7445 15.5014 32.5493 15.5014H20.6162L16.9287 4.30718C16.8683 4.12405 16.6953 4 16.5001 4C16.3048 4 16.1318 4.12399 16.0715 4.30718L12.3839 15.5014H0.45069C0.255465 15.5014 0.0824127 15.6254 0.0220846 15.8085C-0.0382434 15.9916 0.0278531 16.1923 0.185824 16.3055L5.34946 20.0059C4.96226 20.7333 4.74276 21.5606 4.74276 22.4376C4.74276 22.6503 4.75597 22.86 4.78103 23.0661C4.76625 23.1558 4.77935 23.2488 4.82039 23.332C4.92043 23.9044 5.11452 24.4455 5.38672 24.9388C5.40486 25.0179 5.4447 25.0932 5.50713 25.1547C5.51122 25.1588 5.5156 25.1622 5.51975 25.166C5.79062 25.6033 6.12459 25.9986 6.50897 26.3397C6.52502 26.3632 6.54346 26.3857 6.56455 26.4065C6.60193 26.4434 6.64447 26.4719 6.6896 26.4931C7.11316 26.8367 7.59127 27.1171 8.10899 27.3195C8.16048 27.3512 8.21691 27.3717 8.27495 27.381C8.33324 27.4016 8.39194 27.4212 8.45119 27.4398L6.15241 34.4181C6.09208 34.6012 6.15818 34.8019 6.31615 34.9151C6.47412 35.0283 6.68797 35.0283 6.84589 34.9151L16.5001 27.9967L26.1542 34.9151C26.2331 34.9717 26.3261 35 26.419 35C26.512 35 26.6049 34.9717 26.6839 34.9151C26.8419 34.8019 26.908 34.6012 26.8476 34.4181L24.5489 27.4399C26.6689 26.7732 28.2161 24.8291 28.2562 22.5291C28.2791 22.4485 28.2788 22.3628 28.2548 22.2825C28.2378 21.7068 28.1265 21.1539 27.9353 20.6388C27.9295 20.619 27.9218 20.5997 27.9131 20.5807C27.837 20.3832 27.7493 20.1913 27.6507 20.006L32.8143 16.3056C32.9722 16.1923 33.0382 15.9917 32.9779 15.8085ZM11.1608 19.5782C11.2489 19.665 11.3642 19.7084 11.4795 19.7084C11.5949 19.7084 11.7102 19.665 11.7983 19.5783L12.5515 18.8353C12.758 18.9744 12.9513 19.1307 13.1307 19.3014L6.88488 25.4619C6.71183 25.285 6.55332 25.0943 6.41229 24.8906L10.6152 20.7451C10.7912 20.5715 10.7912 20.29 10.6152 20.1165C10.4392 19.9429 10.1539 19.9429 9.9779 20.1165L5.96758 24.072C5.86243 23.8165 5.78101 23.5493 5.72633 23.2725L10.9109 18.1587C11.1915 18.2126 11.4625 18.2929 11.7215 18.3966L11.1608 18.9496C10.9848 19.1231 10.9848 19.4046 11.1608 19.5782ZM9.2146 26.716L14.4021 21.5993C14.4446 21.8137 14.471 22.0337 14.4803 22.258L9.88248 26.7931C9.65498 26.784 9.432 26.7579 9.2146 26.716ZM14.2962 23.6969C13.8692 25.09 12.7535 26.1904 11.3412 26.6115L14.2962 23.6969ZM8.24875 26.4113C8.01261 26.3059 7.7871 26.1814 7.57511 26.0384L13.715 19.9823C13.86 20.1914 13.9863 20.4138 14.0931 20.6467L8.24875 26.4113ZM5.66011 22.0805C5.83533 19.9609 7.55342 18.2663 9.70233 18.0934L5.66011 22.0805ZM25.5619 33.3917L16.7649 27.0876C16.607 26.9744 16.3931 26.9744 16.2352 27.0876L7.43817 33.3917L9.33382 27.637C9.57278 27.6695 9.81662 27.6867 10.0645 27.6867C12.264 27.6867 14.1561 26.3637 14.9658 24.4822C15.2005 24.4667 15.3862 24.2746 15.3862 24.0391V22.5661C15.423 22.47 15.4249 22.3642 15.3919 22.267C15.4491 21.7138 15.9242 21.2806 16.5 21.2806C17.1142 21.2806 17.6138 21.7734 17.6138 22.3792V24.0391C17.6138 24.2746 17.7994 24.4667 18.0341 24.4822C18.1156 24.6715 18.2082 24.8552 18.3109 25.0325C18.3213 25.054 18.3336 25.0748 18.3478 25.0948C18.6426 25.5882 19.0166 26.0303 19.4528 26.4035C19.4538 26.4044 19.4546 26.4055 19.4556 26.4065C19.4737 26.4244 19.4933 26.4399 19.5135 26.4541C19.9675 26.8311 20.4862 27.1346 21.0504 27.3461C21.0709 27.3555 21.0918 27.3635 21.1132 27.3696C21.6764 27.5727 22.2837 27.6843 22.9168 27.6865C22.9185 27.6865 22.9201 27.6867 22.9218 27.6867C22.9228 27.6867 22.9237 27.6866 22.9247 27.6866C22.9283 27.6866 22.9319 27.6867 22.9355 27.6867C23.1834 27.6867 23.4271 27.6695 23.6661 27.637L25.5619 33.3917ZM24.607 18.4022L24.0521 18.9496C23.8761 19.1232 23.8761 19.4047 24.0521 19.5783C24.1401 19.665 24.2555 19.7084 24.3708 19.7084C24.4861 19.7084 24.6014 19.665 24.6895 19.5782L25.4343 18.8435C25.6402 18.9832 25.8333 19.1399 26.0121 19.3111L19.7658 25.4721C19.5922 25.2957 19.4334 25.1053 19.2917 24.9022L23.5064 20.7451C23.6824 20.5715 23.6824 20.29 23.5064 20.1165C23.3303 19.9429 23.045 19.9429 22.8691 20.1165L18.8444 24.0862C18.7385 23.8316 18.6561 23.5652 18.6005 23.2893L23.7991 18.1617C24.0787 18.2165 24.3488 18.2978 24.607 18.4022ZM22.7402 26.7928C22.5232 26.7835 22.3105 26.7583 22.1028 26.719L27.2762 21.6162C27.316 21.8211 27.3416 22.0309 27.3511 22.2449L22.7402 26.7928ZM20.458 26.0466L26.5944 19.9939C26.7389 20.2037 26.8643 20.4269 26.9705 20.6604L21.1337 26.4175C20.8969 26.3128 20.6706 26.189 20.458 26.0466ZM18.5296 22.1019C18.6955 19.9651 20.4289 18.2555 22.5952 18.0918L18.5296 22.1019ZM24.1931 26.6169L27.1727 23.6781C26.7482 25.0863 25.6209 26.1982 24.1931 26.6169ZM27.1647 19.2553C27.1162 19.1928 27.0664 19.1314 27.0152 19.0711C26.9992 19.0477 26.9809 19.0254 26.9599 19.0047C26.9572 19.0021 26.9543 18.9998 26.9515 18.9973C26.5759 18.5712 26.1317 18.2056 25.6364 17.9166C25.6114 17.8986 25.585 17.8836 25.5576 17.8714C24.9972 17.5571 24.3738 17.3404 23.711 17.2445C23.7035 17.2434 23.6959 17.2421 23.6884 17.2413C23.4424 17.2069 23.1911 17.1886 22.9356 17.1886C20.5428 17.1886 18.5139 18.7545 17.8464 20.9019C17.4893 20.5849 17.0172 20.3917 16.5001 20.3917C15.9829 20.3917 15.5108 20.5849 15.1536 20.9019C14.4862 18.7546 12.4574 17.1886 10.0645 17.1886C8.34219 17.1886 6.80869 18 5.83539 19.2553L1.83769 16.3904H12.7113C12.9065 16.3904 13.0796 16.2664 13.1399 16.0833L16.5001 5.88304L19.8602 16.0833C19.9205 16.2664 20.0935 16.3904 20.2888 16.3904H31.1624L27.1647 19.2553Z" fill="#FFF7E6"/>
</svg>
