<svg width="80" height="80" viewBox="0 0 80 80" fill="none" xmlns="http://www.w3.org/2000/svg">
<path d="M55.5501 65.15C55.7751 65.15 77.5001 64.8 77.5001 35.425C77.5096 32.131 76.6176 28.8972 74.9206 26.0739C73.2236 23.2506 70.7864 20.9456 67.873 19.4085C64.9596 17.8713 61.6811 17.1608 58.3927 17.3538C55.1043 17.5467 51.9315 18.6359 49.2179 20.5032C46.5043 22.3706 44.3534 24.9449 42.9983 27.9473C41.6432 30.9497 41.1355 34.2656 41.5302 37.5359C41.925 40.8062 43.2072 43.9061 45.2378 46.4998C47.2684 49.0935 49.9701 51.082 53.0501 52.25V62.65C53.0501 63.313 53.3135 63.9489 53.7823 64.4178C54.2512 64.8866 54.887 65.15 55.5501 65.15ZM46.4001 35.425C46.4001 31.9639 47.775 28.6446 50.2223 26.1973C52.6697 23.7499 55.989 22.375 59.4501 22.375C62.9112 22.375 66.2305 23.7499 68.6778 26.1973C71.1252 28.6446 72.5001 31.9639 72.5001 35.425C72.5001 54.175 62.7751 58.7 58.0501 59.8V50.425C58.068 49.8573 57.8921 49.3004 57.5513 48.8459C57.2105 48.3915 56.7251 48.0667 56.1751 47.925C53.3964 47.2091 50.9319 45.5957 49.1643 43.3354C47.3967 41.0751 46.425 38.2943 46.4001 35.425Z" fill="white"/>
<path d="M16.6749 65.15C16.8999 65.15 38.5999 64.8 38.5999 35.425C38.6112 32.1295 37.72 28.8937 36.023 26.0687C34.326 23.2436 31.8879 20.9371 28.9732 19.3992C26.0585 17.8613 22.7783 17.1507 19.4885 17.3445C16.1986 17.5384 13.0246 18.6292 10.3106 20.4987C7.59663 22.3682 5.44627 24.945 4.09272 27.9498C2.73916 30.9546 2.23407 34.2726 2.63222 37.544C3.03037 40.8154 4.31656 43.9154 6.35132 46.5078C8.38607 49.1002 11.0917 51.086 14.1749 52.25V62.65C14.1749 63.313 14.4383 63.9489 14.9071 64.4178C15.376 64.8866 16.0119 65.15 16.6749 65.15ZM7.4999 35.425C7.4999 31.9639 8.87481 28.6446 11.3222 26.1973C13.7695 23.7499 17.0888 22.375 20.5499 22.375C24.011 22.375 27.3303 23.7499 29.7776 26.1973C32.225 28.6446 33.5999 31.9639 33.5999 35.425C33.5999 54.175 23.8999 58.7 19.1749 59.8V50.425C19.1929 49.8573 19.017 49.3003 18.6762 48.8459C18.3353 48.3915 17.85 48.0667 17.2999 47.925C14.5166 47.2138 12.0465 45.6024 10.274 43.3417C8.50159 41.0809 7.52627 38.2976 7.4999 35.425Z" fill="white"/>
</svg>
