<svg width="710" height="514" viewBox="0 0 710 514" fill="none" xmlns="http://www.w3.org/2000/svg">
<path d="M670.118 25.2134H12.3008C5.8055 25.2134 0.540039 30.4788 0.540039 36.9741V501.275C0.540039 507.77 5.8055 513.036 12.3008 513.036H670.118C676.613 513.036 681.879 507.77 681.879 501.275V36.9741C681.879 30.4788 676.613 25.2134 670.118 25.2134Z" fill="url(#paint0_linear_2106_23)"/>
<path d="M698.226 0.149902H40.4089C33.9137 0.149902 28.6482 5.41536 28.6482 11.9106V476.211C28.6482 482.707 33.9137 487.972 40.4089 487.972H698.226C704.721 487.972 709.987 482.707 709.987 476.211V11.9106C709.987 5.41536 704.721 0.149902 698.226 0.149902Z" fill="url(#paint1_linear_2106_23)"/>
<path d="M710 11.0613V51.3091H28.6482V11.0613C28.6482 5.06328 33.5616 0.149902 39.5595 0.149902H699.089C705.087 0.149902 710 5.06328 710 11.0613Z" fill="url(#paint2_linear_2106_23)"/>
<path d="M611.667 479.766L500.881 365.216C518.078 340.454 528.179 310.398 528.179 278.03C528.179 193.536 459.444 124.801 374.95 124.801C290.455 124.801 221.707 193.536 221.707 278.03C221.707 362.524 290.442 431.259 374.95 431.259C408.821 431.259 440.169 420.204 465.573 401.518L549.165 487.959H616.006C615.404 484.967 613.954 482.118 611.68 479.766H611.667ZM374.95 384.02C316.499 384.02 268.959 336.481 268.959 278.043C268.959 219.605 316.499 172.066 374.95 172.066C433.401 172.066 480.927 219.605 480.927 278.043C480.927 336.481 433.387 384.02 374.95 384.02Z" fill="#7A8496"/>
<path d="M640.22 131.452H510.891C507.166 131.452 504.135 128.434 504.135 124.696C504.135 120.959 507.153 117.94 510.891 117.94H640.22C643.944 117.94 646.975 120.959 646.975 124.696C646.975 128.434 643.957 131.452 640.22 131.452Z" fill="url(#paint3_linear_2106_23)"/>
<path d="M263.758 131.452H98.4285C94.7043 131.452 91.6726 128.434 91.6726 124.696C91.6726 120.959 94.6912 117.94 98.4285 117.94H263.758C267.483 117.94 270.514 120.959 270.514 124.696C270.514 128.434 267.496 131.452 263.758 131.452Z" fill="url(#paint4_linear_2106_23)"/>
<path d="M640.22 225.211H572.53C568.806 225.211 565.774 222.193 565.774 218.456C565.774 214.718 568.793 211.7 572.53 211.7H640.22C643.944 211.7 646.975 214.718 646.975 218.456C646.975 222.193 643.957 225.211 640.22 225.211Z" fill="url(#paint5_linear_2106_23)"/>
<path d="M202.119 225.211H98.4285C94.7043 225.211 91.6726 222.193 91.6726 218.456C91.6726 214.718 94.6912 211.7 98.4285 211.7H202.119C205.843 211.7 208.875 214.718 208.875 218.456C208.875 222.193 205.856 225.211 202.119 225.211Z" fill="url(#paint6_linear_2106_23)"/>
<path d="M640.219 318.957H572.726C569.002 318.957 565.97 315.938 565.97 312.201C565.97 308.464 568.989 305.445 572.726 305.445H640.219C643.944 305.445 646.975 308.464 646.975 312.201C646.975 315.938 643.957 318.957 640.219 318.957Z" fill="url(#paint7_linear_2106_23)"/>
<path d="M201.936 318.957H98.4285C94.7043 318.957 91.6726 315.938 91.6726 312.201C91.6726 308.464 94.6912 305.445 98.4285 305.445H201.936C205.66 305.445 208.692 308.464 208.692 312.201C208.692 315.938 205.673 318.957 201.936 318.957Z" fill="url(#paint8_linear_2106_23)"/>
<path d="M640.22 412.716H604.179C600.455 412.716 597.424 409.698 597.424 405.96C597.424 402.223 600.442 399.205 604.179 399.205H640.22C643.944 399.205 646.975 402.223 646.975 405.96C646.975 409.698 643.957 412.716 640.22 412.716Z" fill="url(#paint9_linear_2106_23)"/>
<path d="M263.066 412.716H98.4285C94.7043 412.716 91.6726 409.698 91.6726 405.96C91.6726 402.223 94.6912 399.205 98.4285 399.205H263.066C266.79 399.205 269.822 402.223 269.822 405.96C269.822 409.698 266.803 412.716 263.066 412.716Z" fill="url(#paint10_linear_2106_23)"/>
<path d="M587.754 502.687L474.942 386.046C468.591 379.513 468.735 369.059 475.269 362.695L487.892 350.424C494.426 344.074 504.88 344.217 511.243 350.751L624.055 467.391C630.406 473.925 630.262 484.379 623.728 490.743L611.105 503.013C604.572 509.364 594.117 509.22 587.754 502.687Z" fill="url(#paint11_linear_2106_23)"/>
<path d="M387.324 418.898C302.83 418.898 234.082 350.15 234.082 265.655C234.082 181.161 302.83 112.413 387.324 112.413C471.819 112.413 540.567 181.161 540.567 265.655C540.567 350.15 471.819 418.898 387.324 418.898ZM387.324 159.678C328.887 159.678 281.334 207.218 281.334 265.669C281.334 324.119 328.874 371.659 387.324 371.659C445.775 371.659 493.315 324.119 493.315 265.669C493.315 207.218 445.775 159.678 387.324 159.678Z" fill="url(#paint12_linear_2106_23)"/>
<path d="M417.014 265.89L447.997 234.907C451.133 231.771 451.133 226.688 447.997 223.552L431.506 207.061C428.369 203.924 423.286 203.924 420.15 207.061L389.167 238.044L358.184 207.061C355.048 203.924 349.964 203.924 346.828 207.061L330.337 223.552C327.201 226.688 327.201 231.771 330.337 234.907L361.32 265.89L330.337 296.873C327.201 300.01 327.201 305.093 330.337 308.229L346.828 324.72C349.964 327.857 355.048 327.857 358.184 324.72L389.167 293.737L420.15 324.72C423.286 327.857 428.369 327.857 431.506 324.72L447.997 308.229C451.133 305.093 451.133 300.01 447.997 296.873L417.014 265.89Z" fill="url(#paint13_linear_2106_23)"/>
<defs>
<linearGradient id="paint0_linear_2106_23" x1="0.540039" y1="269.131" x2="681.879" y2="269.131" gradientUnits="userSpaceOnUse">
<stop stop-color="#C7C7D1"/>
<stop offset="1" stop-color="#C7C7D1" stop-opacity="0"/>
</linearGradient>
<linearGradient id="paint1_linear_2106_23" x1="369.318" y1="487.972" x2="369.318" y2="0.149902" gradientUnits="userSpaceOnUse">
<stop stop-color="#C7C7D1"/>
<stop offset="1" stop-color="#7A8496"/>
</linearGradient>
<linearGradient id="paint2_linear_2106_23" x1="369.318" y1="0.149902" x2="369.318" y2="51.3091" gradientUnits="userSpaceOnUse">
<stop stop-color="#363D56"/>
<stop offset="1" stop-color="#1D1D33"/>
</linearGradient>
<linearGradient id="paint3_linear_2106_23" x1="504.135" y1="124.696" x2="646.962" y2="124.696" gradientUnits="userSpaceOnUse">
<stop stop-color="#363D56" stop-opacity="0"/>
<stop offset="1" stop-color="#363D56"/>
</linearGradient>
<linearGradient id="paint4_linear_2106_23" x1="91.6726" y1="124.696" x2="270.501" y2="124.696" gradientUnits="userSpaceOnUse">
<stop stop-color="#363D56"/>
<stop offset="1" stop-color="#363D56" stop-opacity="0"/>
</linearGradient>
<linearGradient id="paint5_linear_2106_23" x1="565.774" y1="218.456" x2="-283.729" y2="218.456" gradientUnits="userSpaceOnUse">
<stop stop-color="#363D56" stop-opacity="0"/>
<stop offset="1" stop-color="#363D56"/>
</linearGradient>
<linearGradient id="paint6_linear_2106_23" x1="-285.037" y1="218.456" x2="208.862" y2="218.456" gradientUnits="userSpaceOnUse">
<stop stop-color="#363D56"/>
<stop offset="1" stop-color="#363D56" stop-opacity="0"/>
</linearGradient>
<linearGradient id="paint7_linear_2106_23" x1="565.97" y1="312.214" x2="-283.73" y2="312.214" gradientUnits="userSpaceOnUse">
<stop stop-color="#363D56" stop-opacity="0"/>
<stop offset="1" stop-color="#363D56"/>
</linearGradient>
<linearGradient id="paint8_linear_2106_23" x1="-285.037" y1="312.214" x2="208.692" y2="312.214" gradientUnits="userSpaceOnUse">
<stop stop-color="#363D56"/>
<stop offset="1" stop-color="#363D56" stop-opacity="0"/>
</linearGradient>
<linearGradient id="paint9_linear_2106_23" x1="597.437" y1="405.96" x2="-283.73" y2="405.96" gradientUnits="userSpaceOnUse">
<stop stop-color="#363D56" stop-opacity="0"/>
<stop offset="1" stop-color="#363D56"/>
</linearGradient>
<linearGradient id="paint10_linear_2106_23" x1="-285.037" y1="405.96" x2="269.809" y2="405.96" gradientUnits="userSpaceOnUse">
<stop stop-color="#363D56"/>
<stop offset="1" stop-color="#363D56" stop-opacity="0"/>
</linearGradient>
<linearGradient id="paint11_linear_2106_23" x1="549.492" y1="507.691" x2="549.492" y2="345.746" gradientUnits="userSpaceOnUse">
<stop stop-color="#363D56"/>
<stop offset="1" stop-color="#1D1D33"/>
</linearGradient>
<linearGradient id="paint12_linear_2106_23" x1="387.324" y1="112.426" x2="387.324" y2="418.898" gradientUnits="userSpaceOnUse">
<stop stop-color="#363D56"/>
<stop offset="1" stop-color="#1D1D33"/>
</linearGradient>
<linearGradient id="paint13_linear_2106_23" x1="389.167" y1="204.722" x2="389.167" y2="327.072" gradientUnits="userSpaceOnUse">
<stop stop-color="#363D56"/>
<stop offset="1" stop-color="#1D1D33"/>
</linearGradient>
</defs>
</svg>
