<svg width="60" height="60" viewBox="0 0 60 60" fill="none" xmlns="http://www.w3.org/2000/svg">
<path d="M46.6081 19.128C46.7475 18.1986 46.8116 17.2598 46.8001 16.3202C44.0034 13.4137 40.6489 11.1015 36.9373 9.52211C33.2257 7.94276 29.2335 7.12854 25.2001 7.12854C21.1665 7.12854 17.1745 7.94276 13.463 9.52211C9.75154 11.1015 6.39687 13.4137 3.6001 16.3202C3.6001 50.064 25.2001 55.128 25.2001 55.128C26.7975 54.452 28.3386 53.6494 29.8081 52.728" stroke="#FFF7E6" stroke-width="2.5" stroke-linecap="round" stroke-linejoin="round"/>
<path d="M56.3999 33.528H32.3999" stroke="#FFF7E6" stroke-width="2.5" stroke-linecap="round" stroke-linejoin="round"/>
<path d="M51.5999 26.2078H37.1999C34.5489 26.2078 32.3999 28.357 32.3999 31.0078V43.0078C32.3999 45.6588 34.5489 47.8078 37.1999 47.8078H51.5999C54.2509 47.8078 56.3999 45.6588 56.3999 43.0078V31.0078C56.3999 28.357 54.2509 26.2078 51.5999 26.2078Z" stroke="#FFF7E6" stroke-width="2.5" stroke-linecap="round" stroke-linejoin="round"/>
</svg>
