<svg width="37" height="36" viewBox="0 0 37 36" fill="none" xmlns="http://www.w3.org/2000/svg">
<circle cx="23.75" cy="12.5" r="12.5" fill="#1C7B6D"/>
<path d="M7.47223 34C10.9087 34 13.6945 31.2141 13.6945 27.7778C13.6945 24.3414 10.9087 21.5555 7.47223 21.5555C4.03578 21.5555 1.25 24.3414 1.25 27.7778C1.25 31.2141 4.03578 34 7.47223 34Z" stroke="#FFF7E6" stroke-width="2.5" stroke-miterlimit="10" stroke-linecap="round" stroke-linejoin="round"/>
<path d="M7.86107 25.8334V27.28C7.86107 27.8245 7.58109 28.3378 7.09886 28.6178L5.91663 29.3334" stroke="#FFF7E6" stroke-width="2.5" stroke-miterlimit="10" stroke-linecap="round" stroke-linejoin="round"/>
<path opacity="0.4" d="M28.4723 14.5555V22.3333" stroke="#FFF7E6" stroke-width="2.5" stroke-miterlimit="10" stroke-linecap="round" stroke-linejoin="round"/>
<path opacity="0.4" d="M18.3612 22.3333C20.5089 22.3333 22.2501 20.5922 22.2501 18.4444C22.2501 16.2967 20.5089 14.5555 18.3612 14.5555C16.2134 14.5555 14.4723 16.2967 14.4723 18.4444C14.4723 20.5922 16.2134 22.3333 18.3612 22.3333Z" stroke="#FFF7E6" stroke-width="2.5" stroke-miterlimit="10" stroke-linecap="round" stroke-linejoin="round"/>
<path d="M2.80554 23.4222V13.7778C2.80554 8.33333 5.91665 6 10.5833 6H26.1389C30.8056 6 33.9167 8.33333 33.9167 13.7778V23.1111C33.9167 28.5556 30.8056 30.8889 26.1389 30.8889H12.9167" stroke="#FFF7E6" stroke-width="2.5" stroke-miterlimit="10" stroke-linecap="round" stroke-linejoin="round"/>
</svg>
