<svg width="60" height="60" viewBox="0 0 60 60" fill="none" xmlns="http://www.w3.org/2000/svg">
<path d="M24.4533 9.72567C25.863 8.52435 26.5678 7.9237 27.3048 7.57147C29.0093 6.75677 30.9908 6.75677 32.6953 7.57147C33.4323 7.9237 34.137 8.52435 35.5468 9.72567C36.1078 10.2038 36.3883 10.4429 36.688 10.6437C37.3748 11.104 38.146 11.4235 38.957 11.5836C39.311 11.6535 39.6783 11.6828 40.4133 11.7414C42.2595 11.8887 43.1825 11.9624 43.9528 12.2344C45.734 12.8636 47.1353 14.2648 47.7645 16.0461C48.0365 16.8163 48.11 17.7394 48.2575 19.5856C48.316 20.3205 48.3453 20.6879 48.4153 21.0417C48.5753 21.8528 48.8947 22.6241 49.3552 23.3109C49.556 23.6105 49.795 23.891 50.2733 24.4521C51.4745 25.8617 52.0753 26.5668 52.4275 27.3035C53.242 29.008 53.242 30.9895 52.4275 32.694C52.0753 33.431 51.4745 34.1357 50.2733 35.5455C49.795 36.1065 49.556 36.387 49.3552 36.6867C48.8947 37.3735 48.5753 38.1448 48.4153 38.956C48.3453 39.3098 48.316 39.6773 48.2575 40.412C48.11 42.2583 48.0365 43.1813 47.7645 43.9515C47.1353 45.7328 45.734 47.134 43.9528 47.7633C43.1825 48.0353 42.2595 48.1087 40.4133 48.2562C39.6783 48.3147 39.311 48.3443 38.957 48.414C38.146 48.5743 37.3748 48.8935 36.688 49.354C36.3883 49.5548 36.1078 49.7938 35.5468 50.272C34.137 51.4733 33.4323 52.074 32.6953 52.4263C30.9908 53.2408 29.0093 53.2408 27.3048 52.4263C26.5678 52.074 25.863 51.4733 24.4533 50.272C23.8923 49.7938 23.6117 49.5548 23.3121 49.354C22.6254 48.8935 21.8541 48.5743 21.043 48.414C20.6891 48.3443 20.3217 48.3147 19.5869 48.2562C17.7406 48.1087 16.8175 48.0353 16.0473 47.7633C14.266 47.134 12.8649 45.7328 12.2357 43.9515C11.9637 43.1813 11.89 42.2583 11.7427 40.412C11.684 39.6773 11.6547 39.3098 11.5848 38.956C11.4247 38.1448 11.1052 37.3735 10.6449 36.6867C10.4441 36.387 10.205 36.1065 9.7269 35.5455C8.52558 34.1357 7.92493 33.431 7.57268 32.694C6.758 30.9895 6.758 29.008 7.57268 27.3035C7.92493 26.5665 8.52558 25.8617 9.7269 24.4521C10.205 23.891 10.4441 23.6105 10.6449 23.3109C11.1052 22.6241 11.4247 21.8528 11.5848 21.0417C11.6547 20.6879 11.684 20.3205 11.7427 19.5856C11.89 17.7394 11.9637 16.8163 12.2357 16.0461C12.8649 14.2648 14.266 12.8636 16.0473 12.2344C16.8175 11.9624 17.7406 11.8887 19.5869 11.7414C20.3217 11.6828 20.6891 11.6535 21.043 11.5836C21.8541 11.4235 22.6254 11.104 23.3121 10.6437C23.6118 10.4429 23.8923 10.2038 24.4533 9.72567Z" stroke="#FFF7E6" stroke-width="2.5"/>
<path d="M21.25 31.25L26.25 36.25L38.75 23.75" stroke="#FFF7E6" stroke-width="2.5" stroke-linecap="round" stroke-linejoin="round"/>
</svg>
