<svg width="796" height="210" viewBox="0 0 796 210" fill="none" xmlns="http://www.w3.org/2000/svg">
<g clip-path="url(#clip0_92_363)">
<path d="M371.62 60.5294C361.4 61.9694 359.94 63.1595 356.03 75.1295C351.21 89.7395 339.53 126.829 331.5 152.969H326.5C318.91 130.189 309.12 101.969 301.5 80.3895C293.03 105.509 284.43 130.479 276.84 152.969H272.03C264.73 127.849 256.4 100.539 248.52 74.9695C244.72 63.1395 243.11 61.5295 233.62 60.5095V56.4395H269.69V60.5294C258.88 61.6994 258.59 63.2995 260.69 70.6095C266.38 90.3195 272.22 109.749 278.21 130.339C286.21 107.119 295.01 81.6995 302.46 57.7495H307.03C315.21 82.5795 323.39 105.659 331.86 130.479C337.99 111.059 346.31 85.0595 349.53 72.3595C351.72 63.8895 350.53 61.9894 338.14 60.5294V56.4395H371.58L371.62 60.5294Z" fill="white"/>
<path d="M417.78 138.97C408.43 150.66 398.21 153.14 393.54 153.14C375.72 153.14 364.91 138.54 364.91 121.74C364.91 111.81 368.42 102.61 374.4 96.1795C380.54 89.3195 388.57 85.5195 396.16 85.5195C408.87 85.5195 418.51 96.5195 418.51 108.16C418.36 111.08 417.92 112.39 415.59 112.98C412.67 113.56 393.97 114.88 376.59 115.46C376.16 135.03 388.13 143.06 398.5 143.06C404.5 143.06 410.04 140.58 415.44 135.61L417.78 138.97ZM392.66 91.0695C385.94 91.0695 379.37 97.3495 377.33 109.18C385.5 109.18 393.68 109.18 402.33 108.74C404.96 108.74 405.83 108.01 405.83 105.82C405.95 98.0595 400.84 91.0495 392.66 91.0495V91.0695Z" fill="white"/>
<path d="M538.85 128.15C538.03 131.97 534.03 146.97 532.57 151.37H461.57V147.28C475.15 146.28 476.17 144.94 476.17 132.97V75.2804C476.17 62.2804 474.56 61.5504 463.61 60.5304V56.4404H508.33C522.06 56.4404 527.75 56.2904 529.51 56.1504C529.65 59.8004 530.24 70.7504 530.82 78.4904L526.44 79.2204C525.424 75.3556 523.944 71.6284 522.03 68.1204C519.69 63.3004 516.33 62.2804 507.57 62.2804H493.73C489.2 62.2804 488.91 62.7204 488.91 66.9504V99.2304H505.12C516.07 99.2304 516.8 97.0404 518.55 87.1104H523.08V117.19H518.55C516.65 106.68 515.49 105.19 504.97 105.19H488.91V134.25C488.91 144.47 492.12 145.35 499.42 145.5H513.03C521.94 145.5 523.4 144.18 526.62 140.38C529.39 137.32 532.46 131.33 534.5 126.95L538.85 128.15Z" fill="white"/>
<path d="M611.44 91.2012C603.56 92.2012 602.53 93.3912 598.74 102.201C593.92 113.831 585.59 133.261 578.03 152.971H573.79C567.66 136.181 560.5 118.801 553.64 101.711C550.28 93.2412 549.11 92.3712 541.52 91.2012V87.2012H571.31V91.2012C563.31 92.2012 562.98 93.2012 565.31 99.5212C568.96 109.601 575.1 125.081 579.19 135.301C584.44 122.301 589.26 110.301 592.48 100.981C594.96 93.8312 594.48 92.2212 584.88 91.2012V87.2012H611.46L611.44 91.2012Z" fill="white"/>
<path d="M667.53 138.97C658.18 150.66 647.96 153.14 643.28 153.14C625.47 153.14 614.66 138.54 614.66 121.74C614.66 111.81 618.16 102.61 624.15 96.1795C630.29 89.3195 638.32 85.5195 645.91 85.5195C658.62 85.5195 668.26 96.5195 668.26 108.16C668.11 111.08 667.67 112.39 665.34 112.98C662.41 113.56 643.72 114.88 626.34 115.46C625.9 135.03 637.88 143.06 648.25 143.06C654.25 143.06 659.79 140.58 665.19 135.61L667.53 138.97ZM642.41 91.0695C635.69 91.0695 629.12 97.3495 627.07 109.18C635.25 109.18 643.43 109.18 652.07 108.74C654.69 108.74 655.57 108.01 655.57 105.82C655.7 98.0595 650.58 91.0495 642.41 91.0495V91.0695Z" fill="white"/>
<path d="M718.94 151.37V147.28C727.41 146.4 728.28 145.38 728.28 135.45V111.35C728.28 101.13 724.63 94.2601 714.99 94.2601C708.99 94.2601 703.31 97.7701 698.78 101.86V136.03C698.78 146.11 699.66 146.4 708.28 147.28V151.37H676.73V147.28C686.37 146.28 687.25 145.67 687.25 136.03V105.97C687.25 96.4701 686.25 96.0401 678.34 94.7201V90.9301C685.377 89.8675 692.247 87.9013 698.78 85.0801V96.6201C701.7 94.6201 704.92 92.3901 708.71 89.9001C712.8 87.2701 716.6 85.5201 720.83 85.5201C732.52 85.5201 739.83 94.1401 739.83 108.3V136.05C739.83 145.98 740.71 146.42 749.18 147.3V151.39L718.94 151.37Z" fill="white"/>
<path d="M785.39 151.22C783.467 152.32 781.32 152.969 779.11 153.12C769.77 153.12 764.8 147.42 764.8 135.74V93.2401H754.72L754.14 91.4901L758.08 87.2501H764.8V74.9701C767.58 72.0501 771.8 68.2501 774.59 65.3301L776.78 65.6201C776.48 71.7501 776.34 80.2201 776.34 87.2301H793.03C794.34 88.6901 793.9 91.9101 792.15 93.2301H776.34V130.62C776.34 142.45 781.01 144.62 784.81 144.62C787.917 144.509 790.96 143.71 793.72 142.28L795.03 146.08L785.39 151.22Z" fill="white"/>
<path d="M104.63 13.7891C86.6612 13.7891 69.0958 19.1176 54.1554 29.1007C39.215 39.0839 27.5705 53.2733 20.6946 69.8746C13.8187 86.4758 12.0201 104.743 15.5264 122.367C19.0327 139.99 27.6863 156.178 40.3929 168.883C53.0995 181.588 69.2883 190.24 86.9122 193.745C104.536 197.249 122.803 195.448 139.404 188.571C156.004 181.693 170.192 170.047 180.174 155.105C190.155 140.164 195.482 122.598 195.48 104.629C195.48 92.6989 193.13 80.8857 188.564 69.8638C183.999 58.8419 177.306 48.8274 168.87 40.3919C160.434 31.9565 150.418 25.2655 139.396 20.701C128.374 16.1364 116.56 13.7877 104.63 13.7891ZM104.63 189.109C87.9239 189.109 71.5928 184.155 57.702 174.874C43.8112 165.593 32.9845 152.401 26.5909 136.967C20.1972 121.532 18.5239 104.549 21.7823 88.1635C25.0408 71.7782 33.0848 56.727 44.8972 44.9133C56.7095 33.0995 71.7597 25.0538 88.1446 21.7934C104.53 18.5329 121.513 20.2043 136.948 26.5961C152.383 32.9879 165.577 43.8131 174.859 57.7028C184.142 71.5925 189.098 87.9229 189.1 104.629C189.101 115.723 186.917 126.708 182.673 136.957C178.429 147.207 172.207 156.52 164.363 164.365C156.519 172.21 147.207 178.433 136.958 182.678C126.709 186.924 115.724 189.109 104.63 189.109Z" fill="white"/>
<path d="M104.63 -0.0292964C83.9346 -0.0312738 63.7033 6.10357 46.4945 17.5995C29.2856 29.0954 15.8721 45.436 7.95003 64.5552C0.0279512 83.6743 -2.04686 104.713 1.98794 125.011C6.02275 145.31 15.986 163.956 30.6177 178.592C45.2495 193.228 63.8927 203.196 84.1898 207.237C104.487 211.278 125.526 209.209 144.648 201.292C163.769 193.376 180.114 179.967 191.615 162.761C203.115 145.556 209.256 125.326 209.26 104.631C209.265 90.8876 206.563 77.2781 201.307 64.5798C196.051 51.8814 188.345 40.343 178.628 30.6238C168.912 20.9046 157.375 13.1949 144.679 7.93538C131.982 2.67582 118.373 -0.030611 104.63 -0.0292964ZM104.63 202.551C85.2474 202.551 66.3001 196.803 50.1841 186.035C34.0681 175.266 21.5072 159.961 14.0898 142.054C6.67241 124.147 4.73169 104.442 8.51304 85.4319C12.2944 66.4217 21.628 48.9598 35.3335 35.2542C49.0391 21.5487 66.501 12.2151 85.5111 8.43375C104.521 4.6524 124.226 6.59312 142.133 14.0105C160.04 21.4279 175.346 33.9888 186.114 50.1048C196.882 66.2208 202.63 85.1681 202.63 104.551C202.634 117.423 200.102 130.17 195.179 142.063C190.256 153.956 183.038 164.763 173.937 173.867C164.837 182.97 154.032 190.191 142.14 195.118C130.248 200.045 117.502 202.581 104.63 202.581V202.551Z" fill="white"/>
<path d="M104.63 13.7891C86.6612 13.7891 69.0958 19.1176 54.1554 29.1007C39.215 39.0839 27.5705 53.2733 20.6946 69.8746C13.8187 86.4758 12.0201 104.743 15.5264 122.367C19.0327 139.99 27.6863 156.178 40.3929 168.883C53.0995 181.588 69.2883 190.24 86.9122 193.745C104.536 197.249 122.803 195.448 139.404 188.571C156.004 181.693 170.192 170.047 180.174 155.105C190.155 140.164 195.482 122.598 195.48 104.629C195.48 92.6989 193.13 80.8857 188.564 69.8638C183.999 58.8419 177.306 48.8274 168.87 40.3919C160.434 31.9565 150.418 25.2655 139.396 20.701C128.374 16.1364 116.56 13.7877 104.63 13.7891ZM104.63 189.109C87.9239 189.109 71.5928 184.155 57.702 174.874C43.8112 165.593 32.9845 152.401 26.5909 136.967C20.1972 121.532 18.5239 104.549 21.7823 88.1635C25.0408 71.7782 33.0848 56.727 44.8972 44.9133C56.7095 33.0995 71.7597 25.0538 88.1446 21.7934C104.53 18.5329 121.513 20.2043 136.948 26.5961C152.383 32.9879 165.577 43.8131 174.859 57.7028C184.142 71.5925 189.098 87.9229 189.1 104.629C189.101 115.723 186.917 126.708 182.673 136.957C178.429 147.207 172.207 156.52 164.363 164.365C156.519 172.21 147.207 178.433 136.958 182.678C126.709 186.924 115.724 189.109 104.63 189.109Z" fill="white"/>
<path d="M104.63 13.7891C86.6612 13.7891 69.0958 19.1176 54.1554 29.1007C39.215 39.0839 27.5705 53.2733 20.6946 69.8746C13.8187 86.4758 12.0201 104.743 15.5264 122.367C19.0327 139.99 27.6863 156.178 40.3929 168.883C53.0995 181.588 69.2883 190.24 86.9122 193.745C104.536 197.249 122.803 195.448 139.404 188.571C156.004 181.693 170.192 170.047 180.174 155.105C190.155 140.164 195.482 122.598 195.48 104.629C195.48 92.6989 193.13 80.8857 188.564 69.8638C183.999 58.8419 177.306 48.8274 168.87 40.3919C160.434 31.9565 150.418 25.2655 139.396 20.701C128.374 16.1364 116.56 13.7877 104.63 13.7891ZM104.63 189.109C87.9239 189.109 71.5928 184.155 57.702 174.874C43.8112 165.593 32.9845 152.401 26.5909 136.967C20.1972 121.532 18.5239 104.549 21.7823 88.1635C25.0408 71.7782 33.0848 56.727 44.8972 44.9133C56.7095 33.0995 71.7597 25.0538 88.1446 21.7934C104.53 18.5329 121.513 20.2043 136.948 26.5961C152.383 32.9879 165.577 43.8131 174.859 57.7028C184.142 71.5925 189.098 87.9229 189.1 104.629C189.101 115.723 186.917 126.708 182.673 136.957C178.429 147.207 172.207 156.52 164.363 164.365C156.519 172.21 147.207 178.433 136.958 182.678C126.709 186.924 115.724 189.109 104.63 189.109Z" fill="white"/>
<path d="M135.75 68.7188V73.8187C135.92 73.8187 136.11 73.8187 136.33 73.8187C137.955 73.305 139.632 72.9697 141.33 72.8187V68.8187L135.75 68.7188ZM120.95 105.969H122.03C122.63 104.049 123.23 102.189 123.79 100.419H120.98L120.95 105.969Z" fill="white"/>
<path d="M136.33 73.7798C132.6 75.0898 131.24 77.6998 129 84.2998C127.92 87.5198 126.05 93.2998 123.76 100.44H120.95V105.97H122.03C118.68 116.55 114.74 129.13 111.14 140.74H105.03C99.47 125.04 93.26 108.92 87.03 92.5698C81.37 109.03 75.92 124.93 70.8 140.74H64.48C60.12 125.39 53.14 102.83 47.03 83.5398C44.3 75.2598 42.67 73.3998 36.03 72.7598V68.7598H68.94V72.7598C60.76 73.5098 60.54 75.1498 62.08 80.8198C65.67 93.3398 69.48 106.1 73.08 117.98C78.08 103.98 82.92 89.1298 87.51 73.8398C87.5473 73.7161 87.5553 73.5855 87.5333 73.4583C87.5113 73.331 87.4599 73.2107 87.3832 73.1068C87.3065 73.0029 87.2066 72.9183 87.0915 72.8598C86.9763 72.8013 86.8491 72.7705 86.72 72.7698H83.72V68.7698H100.13V72.7698H96.88C96.7705 72.7714 96.663 72.7991 96.5663 72.8506C96.4696 72.902 96.3866 72.9758 96.3241 73.0657C96.2615 73.1555 96.2213 73.259 96.2067 73.3676C96.1921 73.4761 96.2035 73.5865 96.24 73.6898C101.73 88.8198 107.37 103.58 112.83 118.09C116.83 106.32 122.09 88.0898 123.62 81.9098C125.14 75.4798 124.05 73.5098 114.69 72.7598V68.7598H135.69V73.8598C135.92 73.8098 136.11 73.7798 136.33 73.7798Z" fill="white"/>
<path d="M163.13 86.1597L158.88 86.6997C157.88 82.9997 156.04 78.5297 154.2 76.5697C152.2 74.3897 150.82 73.7397 145.26 73.7397H138.17C137.45 73.7397 136.84 73.7397 136.33 73.7397C136.11 73.7397 135.92 73.7397 135.75 73.7397V68.6397H145.26C156.7 68.6397 160.51 68.5297 162.04 68.4297C162.15 70.4697 162.69 79.4097 163.13 86.1597Z" fill="white"/>
<path d="M152.03 91.0605V115.371H147.77C146.03 107.301 145.15 105.991 138.84 105.991H120.95V100.441H138.95C145.04 100.441 146.13 98.7905 147.77 91.0605H152.03Z" fill="white"/>
<path d="M163.13 122.23L159.13 121.23C157.396 125.137 155.161 128.801 152.48 132.13C150.08 135.07 148.48 135.83 142.34 135.83H134.61C132.34 135.83 119.25 135.83 117.68 135.83V140.75H158.58C159.53 137.7 162.58 125.17 163.13 122.23Z" fill="white"/>
</g>
<defs>
<clipPath id="clip0_92_363">
<rect width="795.04" height="209.27" fill="white"/>
</clipPath>
</defs>
</svg>
