<svg width="149" height="39" viewBox="0 0 149 39" fill="none" xmlns="http://www.w3.org/2000/svg">
<path d="M69.6495 11.2866C67.7341 11.555 67.4605 11.7768 66.7277 14.0075C65.8244 16.7303 63.6354 23.6424 62.1305 28.5139H61.1934C59.771 24.2686 57.9362 19.0095 56.5081 14.9878C54.9208 19.6692 53.309 24.3227 51.8866 28.5139H50.9851C49.617 23.8325 48.0559 18.743 46.5791 13.9777C45.8669 11.773 45.5652 11.473 43.7866 11.2829V10.5244H50.5466V11.2866C48.5206 11.5047 48.4663 11.8029 48.8599 13.1652C49.9262 16.8384 51.0207 20.4594 52.1433 24.2966C53.6426 19.9692 55.2918 15.2319 56.6881 10.7685H57.5445C59.0776 15.3959 60.6106 19.6972 62.198 24.3227C63.3468 20.7035 64.9061 15.8581 65.5095 13.4913C65.92 11.9128 65.697 11.5587 63.3749 11.2866V10.5244H69.642L69.6495 11.2866Z" fill="#093B56"/>
<path d="M78.3006 25.9049C76.5483 28.0835 74.6329 28.5457 73.7577 28.5457C70.418 28.5457 68.3921 25.8248 68.3921 22.6939C68.3921 20.8433 69.0499 19.1288 70.1706 17.9305C71.3213 16.652 72.8263 15.9438 74.2487 15.9438C76.6307 15.9438 78.4374 17.9938 78.4374 20.1631C78.4093 20.7073 78.3268 20.9514 77.8901 21.0614C77.3429 21.1694 73.8383 21.4154 70.5811 21.5235C70.5005 25.1706 72.7438 26.6671 74.6873 26.6671C75.8117 26.6671 76.85 26.2049 77.862 25.2787L78.3006 25.9049ZM73.5928 16.9782C72.3334 16.9782 71.1021 18.1485 70.7197 20.3532C72.2509 20.3532 73.7839 20.3532 75.405 20.2712C75.8979 20.2712 76.061 20.1351 76.061 19.727C76.0835 18.2808 75.1258 16.9744 73.5928 16.9744V16.9782Z" fill="#093B56"/>
<path d="M100.991 23.8883C100.837 24.6002 100.087 27.3956 99.8136 28.2156H86.5073V27.4534C89.0524 27.267 89.2435 27.0173 89.2435 24.7866V14.0353C89.2435 11.6126 88.9418 11.4766 86.8896 11.2865V10.5243H95.2707C97.8439 10.5243 98.9102 10.4963 99.2401 10.4702C99.2663 11.1504 99.3769 13.1911 99.4856 14.6335L98.6647 14.7696C98.4744 14.0493 98.1969 13.3547 97.8383 12.701C97.3997 11.8027 96.77 11.6126 95.1283 11.6126H92.5345C91.6855 11.6126 91.6312 11.6946 91.6312 12.4829V18.4987H94.6691C96.7213 18.4987 96.8581 18.0906 97.1861 16.24H98.035V21.8458H97.1861C96.83 19.8871 96.6126 19.6094 94.641 19.6094H91.6312V25.0251C91.6312 26.9297 92.2328 27.0937 93.6009 27.1217H96.1515C97.8214 27.1217 98.095 26.8757 98.6985 26.1675C99.2176 25.5972 99.793 24.4809 100.175 23.6647L100.991 23.8883Z" fill="#093B56"/>
<path d="M114.595 17.0023C113.118 17.1886 112.925 17.4104 112.214 19.0523C111.311 21.2197 109.75 24.8407 108.333 28.5139H107.539C106.39 25.3848 105.048 22.1459 103.762 18.9609C103.132 17.3825 102.913 17.2203 101.491 17.0023V16.2568H107.074V17.0023C105.574 17.1886 105.513 17.375 105.949 18.5528C106.633 20.4313 107.784 23.3162 108.551 25.2209C109.534 22.7981 110.438 20.5618 111.041 18.8249C111.506 17.4924 111.416 17.1924 109.617 17.0023V16.2568H114.598L114.595 17.0023Z" fill="#093B56"/>
<path d="M125.107 25.9049C123.354 28.0835 121.439 28.5457 120.562 28.5457C117.224 28.5457 115.198 25.8248 115.198 22.6939C115.198 20.8433 115.854 19.1288 116.977 17.9305C118.127 16.652 119.632 15.9438 121.055 15.9438C123.437 15.9438 125.244 17.9938 125.244 20.1631C125.215 20.7073 125.133 20.9514 124.696 21.0614C124.147 21.1694 120.644 21.4154 117.387 21.5235C117.305 25.1706 119.55 26.6671 121.493 26.6671C122.618 26.6671 123.656 26.2049 124.668 25.2787L125.107 25.9049ZM120.399 16.9782C119.14 16.9782 117.908 18.1485 117.524 20.3532C119.057 20.3532 120.59 20.3532 122.209 20.2712C122.7 20.2712 122.865 20.1351 122.865 19.727C122.89 18.2808 121.93 16.9744 120.399 16.9744V16.9782Z" fill="#093B56"/>
<path d="M134.741 28.2158V27.4535C136.329 27.2895 136.492 27.0995 136.492 25.2489V20.7576C136.492 18.8529 135.808 17.5726 134.001 17.5726C132.876 17.5726 131.812 18.2268 130.963 18.989V25.357C130.963 27.2355 131.128 27.2895 132.743 27.4535V28.2158H126.831V27.4535C128.637 27.2672 128.802 27.1535 128.802 25.357V19.7549C128.802 17.9845 128.615 17.9043 127.132 17.6583V16.952C128.451 16.754 129.739 16.3876 130.963 15.8618V18.0124C131.51 17.6397 132.114 17.2241 132.824 16.7601C133.591 16.2699 134.303 15.9438 135.095 15.9438C137.286 15.9438 138.656 17.5503 138.656 20.1891V25.3607C138.656 27.2113 138.821 27.2933 140.409 27.4573V28.2195L134.741 28.2158Z" fill="#093B56"/>
<path d="M147.195 28.1878C146.835 28.3927 146.432 28.5138 146.018 28.5419C144.268 28.5419 143.336 27.4796 143.336 25.3029V17.3825H141.447L141.338 17.0564L142.077 16.2662H143.336V13.9777C143.857 13.4335 144.648 12.7253 145.171 12.1812L145.581 12.2352C145.525 13.3776 145.499 14.9561 145.499 16.2625H148.627C148.872 16.5346 148.79 17.1347 148.462 17.3807H145.499V24.3487C145.499 26.5534 146.374 26.9578 147.086 26.9578C147.669 26.9371 148.239 26.7882 148.756 26.5217L149.002 27.2299L147.195 28.1878Z" fill="#093B56"/>
<path d="M19.6128 2.57568C16.2452 2.57568 12.9533 3.56872 10.1533 5.4292C7.35325 7.28968 5.17094 9.93405 3.88231 13.0279C2.59368 16.1217 2.25661 19.5261 2.91373 22.8104C3.57085 26.0948 5.19264 29.1116 7.57401 31.4794C9.95538 33.8471 12.9894 35.4595 16.2923 36.1126C19.5952 36.7657 23.0187 36.4301 26.1298 35.1483C29.241 33.8666 31.9 31.6962 33.7706 28.9117C35.6413 26.1271 36.6396 22.8535 36.6392 19.5048C36.6392 17.2815 36.1988 15.0799 35.3431 13.0259C34.4874 10.9718 33.2332 9.10549 31.6522 7.53345C30.0711 5.96141 28.1941 4.71446 26.1284 3.8638C24.0627 3.01314 21.8487 2.57544 19.6128 2.57568ZM19.6128 35.2487C16.4819 35.2487 13.4212 34.3255 10.8179 32.5958C8.21464 30.8661 6.18558 28.4077 4.98734 25.5313C3.7891 22.6549 3.47549 19.4898 4.08617 16.4363C4.69685 13.3827 6.20439 10.5777 8.41816 8.37606C10.6319 6.17443 13.4525 4.675 16.5232 4.06738C19.594 3.45976 22.7769 3.77124 25.6697 4.96243C28.5624 6.15362 31.0349 8.17102 32.7746 10.7595C34.5144 13.348 35.4431 16.3914 35.4435 19.5048C35.4437 21.5722 35.0345 23.6195 34.239 25.5296C33.4435 27.4397 32.2775 29.1753 30.8075 30.6373C29.3374 32.0993 27.5922 33.259 25.6714 34.0502C23.7506 34.8414 21.6919 35.2487 19.6128 35.2487Z" fill="#093B56"/>
<path d="M19.6127 8.92107e-08C15.7341 -0.000368422 11.9425 1.14293 8.71738 3.28533C5.49224 5.42774 2.97838 8.47302 1.49369 12.0361C0.00899602 15.5992 -0.379849 19.52 0.376322 23.3029C1.13249 27.0857 2.99972 30.5606 5.74189 33.2882C8.48406 36.0158 11.978 37.8735 15.7819 38.6266C19.5859 39.3796 23.5289 38.994 27.1125 37.5187C30.6961 36.0433 33.7592 33.5444 35.9146 30.338C38.07 27.1315 39.2208 23.3615 39.2216 19.5047C39.2226 16.9435 38.7161 14.4072 37.7311 12.0407C36.746 9.67419 35.3018 7.52387 33.4808 5.71257C31.6598 3.90128 29.4978 2.4645 27.1183 1.48431C24.7387 0.504131 22.1883 -0.000244907 19.6127 8.92107e-08ZM19.6127 37.7532C15.9801 37.7532 12.4292 36.6821 9.40886 34.6753C6.38853 32.6685 4.03446 29.8161 2.64435 26.4789C1.25425 23.1417 0.890532 19.4695 1.5992 15.9267C2.30787 12.384 4.0571 9.12971 6.62568 6.57551C9.19427 4.02132 12.4668 2.28189 16.0296 1.57719C19.5923 0.87249 23.2852 1.23417 26.6412 2.61649C29.9972 3.99881 32.8656 6.33968 34.8838 9.3431C36.9019 12.3465 37.979 15.8776 37.979 19.4897C37.9798 21.8886 37.5053 24.2641 36.5826 26.4806C35.6599 28.6971 34.3072 30.7111 32.6017 32.4076C30.8961 34.1041 28.8712 35.4499 26.6425 36.3681C24.4138 37.2862 22.0251 37.7588 19.6127 37.7588V37.7532Z" fill="#093B56"/>
<path d="M19.6128 2.57568C16.2452 2.57568 12.9533 3.56872 10.1533 5.4292C7.35325 7.28968 5.17094 9.93405 3.88231 13.0279C2.59368 16.1217 2.25661 19.5261 2.91373 22.8104C3.57085 26.0948 5.19264 29.1116 7.57401 31.4794C9.95538 33.8471 12.9894 35.4595 16.2923 36.1126C19.5952 36.7657 23.0187 36.4301 26.1298 35.1483C29.241 33.8666 31.9 31.6962 33.7706 28.9117C35.6413 26.1271 36.6396 22.8535 36.6392 19.5048C36.6392 17.2815 36.1988 15.0799 35.3431 13.0259C34.4874 10.9718 33.2332 9.10549 31.6522 7.53345C30.0711 5.96141 28.1941 4.71446 26.1284 3.8638C24.0627 3.01314 21.8487 2.57544 19.6128 2.57568ZM19.6128 35.2487C16.4819 35.2487 13.4212 34.3255 10.8179 32.5958C8.21464 30.8661 6.18558 28.4077 4.98734 25.5313C3.7891 22.6549 3.47549 19.4898 4.08617 16.4363C4.69685 13.3827 6.20439 10.5777 8.41816 8.37606C10.6319 6.17443 13.4525 4.675 16.5232 4.06738C19.594 3.45976 22.7769 3.77124 25.6697 4.96243C28.5624 6.15362 31.0349 8.17102 32.7746 10.7595C34.5144 13.348 35.4431 16.3914 35.4435 19.5048C35.4437 21.5722 35.0345 23.6195 34.239 25.5296C33.4435 27.4397 32.2775 29.1753 30.8075 30.6373C29.3374 32.0993 27.5922 33.259 25.6714 34.0502C23.7506 34.8414 21.6919 35.2487 19.6128 35.2487Z" fill="#093B56"/>
<path d="M19.6128 2.57568C16.2452 2.57568 12.9533 3.56872 10.1533 5.4292C7.35325 7.28968 5.17094 9.93405 3.88231 13.0279C2.59368 16.1217 2.25661 19.5261 2.91373 22.8104C3.57085 26.0948 5.19264 29.1116 7.57401 31.4794C9.95538 33.8471 12.9894 35.4595 16.2923 36.1126C19.5952 36.7657 23.0187 36.4301 26.1298 35.1483C29.241 33.8666 31.9 31.6962 33.7706 28.9117C35.6413 26.1271 36.6396 22.8535 36.6392 19.5048C36.6392 17.2815 36.1988 15.0799 35.3431 13.0259C34.4874 10.9718 33.2332 9.10549 31.6522 7.53345C30.0711 5.96141 28.1941 4.71446 26.1284 3.8638C24.0627 3.01314 21.8487 2.57544 19.6128 2.57568ZM19.6128 35.2487C16.4819 35.2487 13.4212 34.3255 10.8179 32.5958C8.21464 30.8661 6.18558 28.4077 4.98734 25.5313C3.7891 22.6549 3.47549 19.4898 4.08617 16.4363C4.69685 13.3827 6.20439 10.5777 8.41816 8.37606C10.6319 6.17443 13.4525 4.675 16.5232 4.06738C19.594 3.45976 22.7769 3.77124 25.6697 4.96243C28.5624 6.15362 31.0349 8.17102 32.7746 10.7595C34.5144 13.348 35.4431 16.3914 35.4435 19.5048C35.4437 21.5722 35.0345 23.6195 34.239 25.5296C33.4435 27.4397 32.2775 29.1753 30.8075 30.6373C29.3374 32.0993 27.5922 33.259 25.6714 34.0502C23.7506 34.8414 21.6919 35.2487 19.6128 35.2487Z" fill="#093B56"/>
<path d="M25.4446 12.8125V13.7629C25.4765 13.7629 25.5121 13.7629 25.5533 13.7629C25.8579 13.6672 26.1721 13.6047 26.4904 13.5766V12.8311L25.4446 12.8125ZM22.6709 19.7545H22.8733C22.9858 19.3967 23.0982 19.05 23.2031 18.7202H22.6765L22.6709 19.7545Z" fill="#093B56"/>
<path d="M25.5533 13.7554C24.8542 13.9995 24.5994 14.4859 24.1796 15.7159C23.9771 16.316 23.6267 17.3932 23.1975 18.7238H22.6709V19.7544H22.8733C22.2455 21.7261 21.5071 24.0705 20.8324 26.2342H19.6873C18.6453 23.3083 17.4814 20.3041 16.3139 17.2571C15.2531 20.3246 14.2317 23.2878 13.2722 26.2342H12.0877C11.2706 23.3735 9.96248 19.1692 8.81739 15.5743C8.30576 14.0312 8.00027 13.6845 6.75586 13.5653V12.8198H12.9236V13.5653C11.3906 13.705 11.3493 14.0107 11.6379 15.0674C12.3108 17.4006 13.0248 19.7786 13.6995 21.9926C14.6365 19.3835 15.5436 16.616 16.4038 13.7665C16.4108 13.7435 16.4123 13.7192 16.4082 13.6954C16.4041 13.6717 16.3944 13.6493 16.3801 13.6299C16.3657 13.6106 16.347 13.5948 16.3254 13.5839C16.3038 13.573 16.28 13.5673 16.2558 13.5671H15.6935V12.8217H18.769V13.5671H18.1599C18.1394 13.5674 18.1192 13.5726 18.1011 13.5822C18.083 13.5918 18.0674 13.6055 18.0557 13.6223C18.044 13.639 18.0364 13.6583 18.0337 13.6785C18.031 13.6988 18.0331 13.7193 18.0399 13.7386C19.0688 16.5582 20.1258 19.309 21.1491 22.0131C21.8987 19.8196 22.8845 16.4222 23.1713 15.2705C23.4561 14.0722 23.2519 13.705 21.4977 13.5653V12.8198H25.4333V13.7703C25.4764 13.761 25.5121 13.7554 25.5533 13.7554Z" fill="#093B56"/>
<path d="M30.5762 16.0625L29.7797 16.1631C29.5923 15.4736 29.2474 14.6406 28.9026 14.2753C28.5278 13.869 28.2691 13.7479 27.2271 13.7479H25.8984C25.7634 13.7479 25.6491 13.7479 25.5535 13.7479C25.5123 13.7479 25.4767 13.7479 25.4448 13.7479V12.7974H27.2271C29.3711 12.7974 30.0851 12.7769 30.3719 12.7583C30.3925 13.1385 30.4937 14.8046 30.5762 16.0625Z" fill="#093B56"/>
<path d="M28.4957 16.9756V21.5061H27.6973C27.3712 20.0021 27.2063 19.758 26.0237 19.758H22.6709V18.7237H26.0443C27.1857 18.7237 27.3899 18.4162 27.6973 16.9756H28.4957Z" fill="#093B56"/>
<path d="M30.5765 22.7845L29.8268 22.5981C29.5019 23.3262 29.0829 24.0091 28.5805 24.6295C28.1307 25.1774 27.8309 25.319 26.6802 25.319H25.2315C24.8061 25.319 22.3528 25.319 22.0586 25.319V26.2359H29.7237C29.9018 25.6675 30.4734 23.3324 30.5765 22.7845Z" fill="#093B56"/>
</svg>
