<svg id="Layer_1" data-name="Layer 1" xmlns="http://www.w3.org/2000/svg" viewBox="0 0 795.04 209.27"><defs><style>.cls-1{isolation:isolate;}.cls-2{fill:#4cabae;}.cls-3{fill:#d1ab5a;}</style></defs><g class="cls-1"><path class="cls-2" d="M414.59,71.56C404.37,73,402.91,74.19,399,86.16c-4.82,14.61-16.5,51.7-24.53,77.84h-5c-7.59-22.78-17.38-51-25-72.58C336,116.54,327.4,141.51,319.81,164H315c-7.3-25.12-15.63-52.43-23.51-78-3.8-11.83-5.41-13.44-14.9-14.46V67.47h36.07v4.09c-10.81,1.17-11.1,2.77-9,10.08,5.69,19.71,11.53,39.14,17.52,59.73,8-23.22,16.8-48.64,24.25-72.59H350c8.18,24.83,16.36,47.91,24.83,72.73,6.13-19.42,14.45-45.42,17.67-58.12,2.19-8.47,1-10.37-11.39-11.83V67.47h33.44Z" transform="translate(-42.97 -11.03)"/><path class="cls-2" d="M460.75,150c-9.35,11.69-19.57,14.17-24.24,14.17-17.82,0-28.63-14.6-28.63-31.4,0-9.93,3.51-19.13,9.49-25.56,6.14-6.86,14.17-10.66,21.76-10.66,12.71,0,22.35,11,22.35,22.64-.15,2.92-.59,4.23-2.92,4.82-2.92.58-21.62,1.9-39,2.48-.43,19.57,11.54,27.6,21.91,27.6,6,0,11.54-2.48,16.94-7.45Zm-25.12-47.9c-6.72,0-13.29,6.28-15.33,18.11,8.17,0,16.35,0,25-.44,2.63,0,3.5-.73,3.5-2.92C448.92,109.09,443.81,102.08,435.63,102.08Z" transform="translate(-42.97 -11.03)"/><path class="cls-2" d="M581.82,139.18C581,143,577,158,575.54,162.4h-71v-4.09c13.58-1,14.6-2.34,14.6-14.31V86.31c0-13-1.61-13.73-12.56-14.75V67.47H551.3c13.73,0,19.42-.15,21.18-.29.14,3.65.73,14.6,1.31,22.34l-4.38.73A49.39,49.39,0,0,0,565,79.15c-2.34-4.82-5.7-5.84-14.46-5.84H536.7c-4.53,0-4.82.44-4.82,4.67v32.28h16.21c10.95,0,11.68-2.19,13.43-12.12h4.53v30.08h-4.53c-1.9-10.51-3.06-12-13.58-12H531.88v29.06c0,10.22,3.21,11.1,10.51,11.25H556c8.91,0,10.37-1.32,13.59-5.12,2.77-3.06,5.84-9.05,7.88-13.43Z" transform="translate(-42.97 -11.03)"/><path class="cls-2" d="M654.41,102.23c-7.88,1-8.91,2.19-12.7,11C636.89,124.86,628.56,144.29,621,164h-4.24c-6.13-16.79-13.29-34.17-20.15-51.26-3.36-8.47-4.53-9.34-12.12-10.51v-4h29.79v4c-8,1-8.33,2-6,8.32,3.65,10.08,9.79,25.56,13.88,35.78,5.25-13,10.07-25,13.29-34.32,2.48-7.15,2-8.76-7.6-9.78v-4h26.58Z" transform="translate(-42.97 -11.03)"/><path class="cls-2" d="M710.5,150c-9.35,11.69-19.57,14.17-24.25,14.17-17.81,0-28.62-14.6-28.62-31.4,0-9.93,3.5-19.13,9.49-25.56,6.14-6.86,14.17-10.66,21.76-10.66,12.71,0,22.35,11,22.35,22.64-.15,2.92-.59,4.23-2.92,4.82-2.93.58-21.62,1.9-39,2.48-.44,19.57,11.54,27.6,21.91,27.6,6,0,11.54-2.48,16.94-7.45Zm-25.12-47.9c-6.72,0-13.29,6.28-15.34,18.11,8.18,0,16.36,0,25-.44,2.62,0,3.5-.73,3.5-2.92C698.67,109.09,693.55,102.08,685.38,102.08Z" transform="translate(-42.97 -11.03)"/><path class="cls-2" d="M761.91,162.4v-4.09c8.47-.88,9.34-1.9,9.34-11.83v-24.1c0-10.22-3.65-17.09-13.29-17.09-6,0-11.68,3.51-16.21,7.6v34.17c0,10.08.88,10.37,9.5,11.25v4.09H719.7v-4.09c9.64-1,10.52-1.61,10.52-11.25V117c0-9.5-1-9.93-8.91-11.25v-3.79a82.71,82.71,0,0,0,20.44-5.85v11.54c2.92-2,6.14-4.23,9.93-6.72,4.09-2.63,7.89-4.38,12.12-4.38,11.69,0,19,8.62,19,22.78v27.75c0,9.93.88,10.37,9.35,11.25v4.09Z" transform="translate(-42.97 -11.03)"/><path class="cls-2" d="M828.36,162.25a14.66,14.66,0,0,1-6.28,1.9c-9.34,0-14.31-5.7-14.31-17.38v-42.5H797.69l-.58-1.75,3.94-4.24h6.72V86c2.78-2.92,7-6.72,9.79-9.64l2.19.29c-.3,6.13-.44,14.6-.44,21.61H836c1.31,1.46.87,4.68-.88,6H819.31v37.39c0,11.83,4.67,14,8.47,14a21,21,0,0,0,8.91-2.34l1.31,3.8Z" transform="translate(-42.97 -11.03)"/></g><path class="cls-3" d="M147.6,24.82a90.85,90.85,0,1,0,90.85,90.84A90.84,90.84,0,0,0,147.6,24.82Zm0,175.32a84.47,84.47,0,1,1,84.47-84.48A84.47,84.47,0,0,1,147.6,200.14Z" transform="translate(-42.97 -11.03)"/><path class="cls-3" d="M147.6,11A104.64,104.64,0,1,0,252.23,115.66,104.62,104.62,0,0,0,147.6,11Zm0,202.58a98,98,0,1,1,98-98A98,98,0,0,1,147.6,213.61Z" transform="translate(-42.97 -11.03)"/><path class="cls-3" d="M147.6,24.82a90.85,90.85,0,1,0,90.85,90.84A90.84,90.84,0,0,0,147.6,24.82Zm0,175.32a84.47,84.47,0,1,1,84.47-84.48A84.47,84.47,0,0,1,147.6,200.14Z" transform="translate(-42.97 -11.03)"/><path class="cls-3" d="M147.6,24.82a90.85,90.85,0,1,0,90.85,90.84A90.84,90.84,0,0,0,147.6,24.82Zm0,175.32a84.47,84.47,0,1,1,84.47-84.48A84.47,84.47,0,0,1,147.6,200.14Z" transform="translate(-42.97 -11.03)"/><g class="cls-1"><path class="cls-3" d="M178.72,79.75v5.1c.17,0,.36,0,.58,0a23.49,23.49,0,0,1,5-1v-4ZM163.92,117H165c.6-1.92,1.2-3.78,1.76-5.55h-2.81Z" transform="translate(-42.97 -11.03)"/><path class="cls-3" d="M179.3,84.81c-3.73,1.31-5.09,3.92-7.33,10.52-1.08,3.22-2.95,9-5.24,16.14h-2.81V117H165c-3.35,10.58-7.29,23.16-10.89,34.77H148c-5.56-15.7-11.77-31.82-18-48.17-5.66,16.46-11.11,32.36-16.23,48.17h-6.32C103.09,136.42,96.11,113.86,90,94.57c-2.73-8.28-4.36-10.14-11-10.78v-4h32.91v4c-8.18.75-8.4,2.39-6.86,8.06,3.59,12.52,7.4,25.28,11,37.16,5-14,9.84-28.85,14.43-44.14a.83.83,0,0,0-.79-1.07h-3v-4h16.41v4h-3.25a.69.69,0,0,0-.64.92c5.49,15.13,11.13,29.89,16.59,44.4,4-11.77,9.26-30,10.79-36.18,1.52-6.43.43-8.4-8.93-9.15v-4h21v5.1C178.89,84.84,179.08,84.81,179.3,84.81Z" transform="translate(-42.97 -11.03)"/><path class="cls-3" d="M206.1,97.19l-4.25.54c-1-3.7-2.84-8.17-4.68-10.13-2-2.18-3.38-2.83-8.94-2.83h-7.09c-.72,0-1.33,0-1.84,0-.22,0-.41,0-.58,0v-5.1h9.51c11.44,0,15.25-.11,16.78-.21C205.12,81.5,205.66,90.44,206.1,97.19Z" transform="translate(-42.97 -11.03)"/><path class="cls-3" d="M195,102.09V126.4h-4.26c-1.74-8.07-2.62-9.38-8.93-9.38H163.92v-5.55h18c6.09,0,7.18-1.65,8.82-9.38Z" transform="translate(-42.97 -11.03)"/><path class="cls-3" d="M206.1,133.26l-4-1a49.2,49.2,0,0,1-6.65,10.9c-2.4,2.94-4,3.7-10.14,3.7h-7.73c-2.27,0-15.36,0-16.93,0v4.92h40.9C202.5,148.73,205.55,136.2,206.1,133.26Z" transform="translate(-42.97 -11.03)"/></g></svg>