<svg width="149" height="149" viewBox="0 0 149 149" fill="none" xmlns="http://www.w3.org/2000/svg">
<path d="M74.987 10.7432C62.2797 10.7432 49.8578 14.5114 39.2921 21.5714C28.7264 28.6313 20.4916 38.6659 15.6291 50.4061C10.7665 62.1463 9.4946 75.0647 11.9742 87.5278C14.4538 99.9908 20.5735 111.439 29.5594 120.424C38.5454 129.409 49.9939 135.527 62.4572 138.005C74.9206 140.484 87.8389 139.21 99.5785 134.346C111.318 129.482 121.352 121.247 128.411 110.68C135.469 100.114 139.236 87.6913 139.235 74.984C139.235 66.5472 137.573 58.193 134.344 50.3984C131.115 42.6039 126.383 35.5218 120.417 29.5564C114.451 23.591 107.368 18.8592 99.5731 15.6312C91.7782 12.4032 83.4239 10.7422 74.987 10.7432ZM74.987 134.727C63.1727 134.727 51.6236 131.224 41.8002 124.66C31.9768 118.097 24.3203 108.768 19.7988 97.8527C15.2773 86.9377 14.094 74.9272 16.3983 63.3397C18.7027 51.7523 24.3913 41.1083 32.7448 32.7538C41.0983 24.3993 51.7416 18.7094 63.3288 16.4037C74.916 14.098 86.9267 15.2799 97.8421 19.8001C108.758 24.3203 118.088 31.9757 124.652 41.7983C131.217 51.6209 134.722 63.1696 134.723 74.984C134.724 82.8292 133.18 90.5978 130.178 97.8461C127.176 105.094 122.776 111.681 117.229 117.228C111.682 122.776 105.097 127.177 97.8487 130.179C90.6007 133.182 82.8323 134.727 74.987 134.727Z" fill="#D1AB5A"/>
<path d="M74.9871 0.969727C60.3516 0.968329 46.0443 5.30681 33.8744 13.4366C21.7046 21.5663 12.2187 33.1222 6.61631 46.643C1.01393 60.1638 -0.453354 75.0422 2.40001 89.3969C5.25337 103.752 12.2992 116.938 22.6466 127.288C32.994 137.638 46.1782 144.688 60.532 147.546C74.8859 150.403 89.7647 148.94 103.287 143.342C116.81 137.743 128.368 128.26 136.501 116.093C144.635 103.925 148.977 89.6194 148.98 74.9839C148.984 65.2649 147.072 55.6405 143.356 46.6604C139.639 37.6803 134.189 29.5205 127.318 22.6472C120.446 15.7739 112.288 10.3217 103.309 6.60224C94.3299 2.88275 84.706 0.968797 74.9871 0.969727ZM74.9871 144.232C61.28 144.232 47.8807 140.167 36.4837 132.552C25.0866 124.936 16.2037 114.113 10.9583 101.449C5.7128 88.7852 4.34034 74.8504 7.01446 61.4067C9.68858 47.963 16.2892 35.6141 25.9815 25.9218C35.6739 16.2294 48.0228 9.6288 61.4665 6.95468C74.9102 4.28056 88.845 5.65301 101.509 10.8985C114.172 16.144 124.996 25.0269 132.611 36.4239C140.227 47.8209 144.291 61.2202 144.291 74.9273C144.294 84.0302 142.504 93.0446 139.022 101.455C135.54 109.866 130.436 117.509 124 123.947C117.564 130.384 109.923 135.491 101.514 138.975C93.1038 142.459 84.09 144.253 74.9871 144.253V144.232Z" fill="#D1AB5A"/>
<path d="M74.987 10.7432C62.2797 10.7432 49.8578 14.5114 39.2921 21.5714C28.7264 28.6313 20.4916 38.6659 15.6291 50.4061C10.7665 62.1463 9.4946 75.0647 11.9742 87.5278C14.4538 99.9908 20.5735 111.439 29.5594 120.424C38.5454 129.409 49.9939 135.527 62.4572 138.005C74.9206 140.484 87.8389 139.21 99.5785 134.346C111.318 129.482 121.352 121.247 128.411 110.68C135.469 100.114 139.236 87.6913 139.235 74.984C139.235 66.5472 137.573 58.193 134.344 50.3984C131.115 42.6039 126.383 35.5218 120.417 29.5564C114.451 23.591 107.368 18.8592 99.5731 15.6312C91.7782 12.4032 83.4239 10.7422 74.987 10.7432ZM74.987 134.727C63.1727 134.727 51.6236 131.224 41.8002 124.66C31.9768 118.097 24.3203 108.768 19.7988 97.8527C15.2773 86.9377 14.094 74.9272 16.3983 63.3397C18.7027 51.7523 24.3913 41.1083 32.7448 32.7538C41.0983 24.3993 51.7416 18.7094 63.3288 16.4037C74.916 14.098 86.9267 15.2799 97.8421 19.8001C108.758 24.3203 118.088 31.9757 124.652 41.7983C131.217 51.6209 134.722 63.1696 134.723 74.984C134.724 82.8292 133.18 90.5978 130.178 97.8461C127.176 105.094 122.776 111.681 117.229 117.228C111.682 122.776 105.097 127.177 97.8487 130.179C90.6007 133.182 82.8323 134.727 74.987 134.727Z" fill="#D1AB5A"/>
<path d="M74.987 10.7432C62.2797 10.7432 49.8578 14.5114 39.2921 21.5714C28.7264 28.6313 20.4916 38.6659 15.6291 50.4061C10.7665 62.1463 9.4946 75.0647 11.9742 87.5278C14.4538 99.9908 20.5735 111.439 29.5594 120.424C38.5454 129.409 49.9939 135.527 62.4572 138.005C74.9206 140.484 87.8389 139.21 99.5785 134.346C111.318 129.482 121.352 121.247 128.411 110.68C135.469 100.114 139.236 87.6913 139.235 74.984C139.235 66.5472 137.573 58.193 134.344 50.3984C131.115 42.6039 126.383 35.5218 120.417 29.5564C114.451 23.591 107.368 18.8592 99.5731 15.6312C91.7782 12.4032 83.4239 10.7422 74.987 10.7432ZM74.987 134.727C63.1727 134.727 51.6236 131.224 41.8002 124.66C31.9768 118.097 24.3203 108.768 19.7988 97.8527C15.2773 86.9377 14.094 74.9272 16.3983 63.3397C18.7027 51.7523 24.3913 41.1083 32.7448 32.7538C41.0983 24.3993 51.7416 18.7094 63.3288 16.4037C74.916 14.098 86.9267 15.2799 97.8421 19.8001C108.758 24.3203 118.088 31.9757 124.652 41.7983C131.217 51.6209 134.722 63.1696 134.723 74.984C134.724 82.8292 133.18 90.5978 130.178 97.8461C127.176 105.094 122.776 111.681 117.229 117.228C111.682 122.776 105.097 127.177 97.8487 130.179C90.6007 133.182 82.8323 134.727 74.987 134.727Z" fill="#D1AB5A"/>
<path d="M96.9947 49.5889V53.1955C97.1149 53.1955 97.2493 53.1955 97.4048 53.1955C98.5543 52.8322 99.74 52.5951 100.941 52.4883V49.6596L96.9947 49.5889ZM86.5283 75.9316H87.2921C87.7164 74.5738 88.1407 73.2584 88.5367 72.0067H86.5495L86.5283 75.9316Z" fill="#D1AB5A"/>
<path d="M97.4049 53.1673C94.7671 54.0937 93.8053 55.9394 92.2212 60.6069C91.4575 62.884 90.135 66.9715 88.5156 72.0209H86.5284V75.9316H87.2921C84.9231 83.4136 82.1368 92.31 79.5909 100.52H75.27C71.338 89.4176 66.9464 78.0178 62.5406 66.4553C58.5379 78.0956 54.6838 89.3398 51.063 100.52H46.5936C43.5102 89.6652 38.5741 73.711 34.2532 60.0694C32.3226 54.2139 31.1698 52.8985 26.4741 52.4459V49.6172H49.7476V52.4459C43.9628 52.9763 43.8073 54.1361 44.8963 58.1459C47.4351 66.9998 50.1295 76.0235 52.6754 84.4249C56.2113 74.5243 59.6341 64.0226 62.8801 53.2097C62.9065 53.1223 62.9121 53.0299 62.8966 52.9399C62.881 52.8499 62.8446 52.7648 62.7904 52.6913C62.7361 52.6179 62.6655 52.558 62.5841 52.5167C62.5027 52.4753 62.4127 52.4535 62.3214 52.453H60.1998V49.6243H71.8048V52.453H69.5064C69.429 52.4542 69.3529 52.4738 69.2846 52.5102C69.2162 52.5465 69.1575 52.5987 69.1133 52.6623C69.069 52.7258 69.0406 52.799 69.0302 52.8758C69.0199 52.9525 69.028 53.0306 69.0538 53.1036C72.9363 63.8033 76.9248 74.2414 80.786 84.5027C83.6148 76.1791 87.3346 63.2871 88.4166 58.9167C89.4915 54.3695 88.7207 52.9763 82.1014 52.4459V49.6172H96.9523V53.2238C97.115 53.1885 97.2493 53.1673 97.4049 53.1673Z" fill="#D1AB5A"/>
<path d="M116.357 61.9222L113.352 62.3041C112.645 59.6875 111.343 56.5264 110.042 55.1403C108.628 53.5986 107.652 53.1389 103.72 53.1389H98.706C98.1968 53.1389 97.7655 53.1389 97.4048 53.1389C97.2492 53.1389 97.1149 53.1389 96.9946 53.1389V49.5323H103.72C111.81 49.5323 114.505 49.4545 115.587 49.3838C115.664 50.8264 116.046 57.1487 116.357 61.9222Z" fill="#D1AB5A"/>
<path d="M108.508 65.3877V82.5794H105.495C104.265 76.8724 103.642 75.946 99.1799 75.946H86.5283V72.0211H99.2577C103.564 72.0211 104.335 70.8542 105.495 65.3877H108.508Z" fill="#D1AB5A"/>
<path d="M116.357 87.4298L113.529 86.7227C112.303 89.4855 110.722 92.0767 108.826 94.431C107.129 96.5101 105.997 97.0476 101.655 97.0476H96.1885C94.5832 97.0476 85.3261 97.0476 84.2158 97.0476V100.527H113.14C113.812 98.37 115.968 89.509 116.357 87.4298Z" fill="#D1AB5A"/>
</svg>
